<svg width="874" height="317" viewBox="0 0 874 317" fill="none" xmlns="http://www.w3.org/2000/svg">
<rect width="874" height="317" fill="#E5E5E5"/>
<rect x="0.5" y="0.5" width="873" height="316" fill="white" stroke="black"/>
<path d="M25.9058 93.3671C25.6783 92.6864 25.3159 92.5503 24.6346 92.5503H24V87.6484H27.9483C29.8541 87.6484 30.7616 88.2383 31.2154 90.0086L34.6192 102.851C34.9368 104.076 35.073 105.302 35.073 105.302H35.1637C35.1637 105.302 35.3452 104.076 35.7082 102.851L39.9742 87.7399H45.0569L49.3676 102.851C49.7312 104.076 49.8674 105.302 49.8674 105.302H49.9581C49.9581 105.302 50.0942 104.076 50.4119 102.851L53.7703 90.0086C54.2241 88.239 55.1316 87.6484 57.0374 87.6484H60.9857V92.5503H60.3511C59.6698 92.5503 59.3522 92.6864 59.0799 93.3671L53.5434 110.793H47.0528L43.1044 97.5877C42.7414 96.3619 42.5599 95.0914 42.5599 95.0914H42.4692C42.4692 95.0914 42.2417 96.3619 41.8793 97.5877L37.9764 110.793H31.4423L25.9058 93.3671Z" fill="#553F2E"/>
<path d="M65.3826 93.5486C65.3826 92.8673 65.0189 92.5503 64.3843 92.5503H62.5687V87.6484H68.0598C70.1931 87.6484 71.0999 88.602 71.0999 90.7346V104.939C71.0999 105.574 71.4636 105.937 72.0988 105.937H73.9139V110.793H68.4228C66.2901 110.793 65.3826 109.885 65.3826 107.706V93.5486Z" fill="#553F2E"/>
<path d="M78.7678 92.2327H75.9091V87.6491H78.7678V86.9685C78.7678 79.3901 84.9849 78.3918 88.2072 78.3918C89.387 78.3918 90.159 78.5279 90.159 78.5279V83.4292C90.159 83.4292 89.6592 83.3384 88.9793 83.3384C87.3451 83.3384 84.5318 83.7468 84.5318 87.1052V87.6498H89.4784V92.2333H84.5311V110.794H78.7678V92.2327V92.2327Z" fill="#553F2E"/>
<path d="M96.2374 115.468C97.8256 115.468 99.2322 114.514 100.049 112.518L100.82 110.748L93.1058 93.3677C92.8336 92.6871 92.516 92.551 91.8807 92.551H91.1994V87.6491H95.0116C96.6458 87.6491 97.4619 88.239 98.0518 89.8271L102.59 101.4C103.044 102.58 103.407 104.485 103.407 104.485H103.498C103.498 104.485 103.861 102.58 104.269 101.4L108.217 89.8271C108.762 88.239 109.715 87.6491 111.303 87.6491H115.206V92.551H114.526C113.844 92.551 113.482 92.6871 113.21 93.3677L104.905 114.288C103.271 118.462 100.004 120.323 96.5544 120.323C92.9237 120.323 90.7009 117.964 90.7009 117.964L92.9243 113.879C92.9243 113.879 94.3316 115.468 96.2374 115.468Z" fill="#553F2E"/>
<path d="M61.7273 78.4203L67.3643 84.0573L73.0019 78.4203C71.5596 76.9755 69.5669 76.0835 67.3643 76.0835C65.1629 76.0835 63.1702 76.9755 61.7273 78.4203Z" fill="#553F2E"/>
<path d="M50.4592 67.1516L56.091 72.7808C58.9756 69.8969 62.9634 68.1116 67.3649 68.1116C71.7676 68.1116 75.7542 69.8969 78.6401 72.7808L84.2718 67.1516C79.9404 62.8189 73.9618 60.1378 67.3655 60.1378C60.7698 60.1378 54.79 62.8196 50.4592 67.1516Z" fill="#553F2E"/>
<path d="M39.1879 55.881L44.8151 61.5056C50.5863 55.7345 58.5594 52.1673 67.3649 52.1673C76.1717 52.1673 84.1448 55.7345 89.9146 61.5056L95.5419 55.881C88.3226 48.6623 78.3562 44.1915 67.3642 44.1915C56.3743 44.1915 46.4072 48.6623 39.1879 55.881Z" fill="#553F2E"/>
<path d="M67.3642 36.3876C79.6896 36.3876 90.9259 41.049 99.4098 48.7038C99.7825 47.292 99.9919 45.8147 99.9919 44.2862C99.9919 34.7391 92.2534 27 82.7064 27C76.0316 27 70.2456 30.785 67.3642 36.3234C64.4842 30.785 58.6981 27 52.0234 27C42.4757 27 34.7378 34.7391 34.7378 44.2862C34.7378 45.8147 34.9472 47.2926 35.3199 48.7038C43.8052 41.049 55.0408 36.3876 67.3642 36.3876Z" fill="#B3CC1F"/>
<path d="M120.423 93.5486C120.423 92.8673 120.06 92.5503 119.424 92.5503H117.609V87.6485H122.918C124.96 87.6485 125.958 88.602 125.958 90.2355V90.9162C125.958 91.4153 125.913 91.9144 125.913 91.9144H126.004C127.094 89.6456 129.861 87.104 133.492 87.104C136.987 87.104 139.255 88.7381 140.254 91.869H140.345C141.57 89.3734 144.566 87.104 148.241 87.104C153.052 87.104 155.82 89.8265 155.82 95.9075V104.939C155.82 105.574 156.183 105.937 156.818 105.937H158.587V110.793H153.142C150.964 110.793 150.056 109.885 150.056 107.706V96.9971C150.056 94.3647 149.556 92.3682 146.88 92.3682C144.021 92.3682 141.979 94.7731 141.343 97.6771C141.071 98.5846 140.98 99.5382 140.98 100.627V110.793H135.216V96.9971C135.216 94.5008 134.853 92.3682 132.085 92.3682C129.181 92.3682 127.23 94.7731 126.504 97.7232C126.277 98.6307 126.141 99.5836 126.141 100.627V110.793H120.423V93.5486V93.5486Z" fill="#B3CC1F"/>
<path d="M171.744 87.1046C178.37 87.1046 182 91.9605 182 98.0868C182 98.7674 181.864 100.219 181.864 100.219H165.89C166.343 104.304 169.339 106.437 172.833 106.437C176.554 106.437 179.323 103.85 179.323 103.85L181.728 107.843C181.728 107.843 178.188 111.338 172.424 111.338C164.755 111.338 159.99 105.801 159.99 99.2219C159.991 92.0966 164.801 87.1046 171.744 87.1046ZM176.101 96.2258C176.01 93.4572 174.105 91.5514 171.744 91.5514C168.794 91.5514 166.707 93.3211 166.072 96.2258H176.101Z" fill="#B3CC1F"/>
<path d="M24.468 143.452C24.468 143.452 26.016 145.216 28.518 145.216C30.912 145.216 32.694 143.416 32.694 141.274C32.694 138.556 30.372 137.638 28.788 137.548L32.514 133.174V132.346H26.088C25.314 132.346 25.026 132.67 25.026 133.444V134.704H26.196V133.858C26.196 133.588 26.34 133.462 26.592 133.462H29.886C30.552 133.462 30.912 133.408 30.912 133.408V133.444C30.912 133.444 30.57 133.732 30.264 134.146L27.15 137.89L27.438 138.628H28.32C29.922 138.628 31.398 139.582 31.398 141.292C31.398 142.912 30.03 144.028 28.536 144.028C26.52 144.028 25.224 142.516 25.224 142.516L24.468 143.452ZM34.2658 143.758C34.2658 144.64 34.5358 145 35.3998 145H41.7358C42.5098 145 42.8338 144.676 42.8338 143.902V142.642H41.6638V143.488C41.6638 143.758 41.5198 143.884 41.2678 143.884H35.9758C35.7058 143.884 35.5618 143.776 35.5618 143.524C35.5618 140.014 42.2578 140.122 42.2578 135.676C42.2578 133.714 40.8178 132.13 38.4058 132.13C37.1098 132.13 34.9318 132.742 34.9318 134.344V135.28H36.1198V134.686C36.1198 133.966 37.1098 133.318 38.3698 133.318C39.9718 133.318 40.9618 134.344 40.9618 135.694C40.9618 139.438 34.2658 139.06 34.2658 143.758ZM53.3543 145H54.7043L58.8623 133.858C58.9883 133.516 59.1683 133.462 59.5103 133.462H59.6723V132.346H59.1323C58.2323 132.346 57.9623 132.508 57.6383 133.39L54.5243 141.904C54.2903 142.552 54.0383 143.542 54.0383 143.542H54.0023C54.0023 143.542 53.7503 142.552 53.5163 141.904L50.4023 133.39C50.0963 132.526 49.8263 132.346 48.9263 132.346H48.3683V133.462H48.5483C48.8903 133.462 49.0703 133.516 49.1963 133.858L53.3543 145ZM59.7884 142.534C59.7884 144.334 61.3544 145.216 62.8664 145.216C65.1344 145.216 65.8904 143.254 65.8724 143.254H65.9084C65.9084 143.254 65.8904 143.524 65.8904 143.92C65.8904 144.658 66.1964 145 66.9704 145H68.2124V143.938H67.4564C67.2044 143.938 67.0604 143.812 67.0604 143.542V139.204C67.0604 137.26 66.3764 135.73 63.5144 135.73C62.7224 135.73 60.5624 136 60.5624 137.26V138.124H61.7324V137.548C61.7324 136.882 63.0464 136.756 63.4964 136.756C65.1524 136.756 65.8364 137.422 65.8364 139.312V139.42H65.3324C63.7664 139.42 59.7884 139.528 59.7884 142.534ZM61.0484 142.462C61.0484 140.428 63.8924 140.392 65.3144 140.392H65.8364V140.806C65.8364 142.372 64.7924 144.172 63.0644 144.172C61.7144 144.172 61.0484 143.308 61.0484 142.462ZM69.1177 143.632C69.1177 143.632 70.2337 145.216 72.5917 145.216C74.3917 145.216 75.7597 144.19 75.7597 142.678C75.7597 139.672 70.6837 140.14 70.6837 138.106C70.6837 137.224 71.4397 136.792 72.6997 136.792C73.2937 136.792 74.2657 137.044 74.2657 137.71V138.142H75.4177V137.368C75.4177 136.09 73.5817 135.73 72.6637 135.73C70.8457 135.73 69.4417 136.54 69.4417 138.178C69.4417 141.094 74.5177 140.734 74.5177 142.714C74.5177 143.668 73.6177 144.154 72.6097 144.154C70.8277 144.154 69.8197 142.786 69.8197 142.786L69.1177 143.632ZM77.0454 143.632C77.0454 143.632 78.1614 145.216 80.5194 145.216C82.3194 145.216 83.6874 144.19 83.6874 142.678C83.6874 139.672 78.6114 140.14 78.6114 138.106C78.6114 137.224 79.3674 136.792 80.6274 136.792C81.2214 136.792 82.1934 137.044 82.1934 137.71V138.142H83.3454V137.368C83.3454 136.09 81.5094 135.73 80.5914 135.73C78.7734 135.73 77.3694 136.54 77.3694 138.178C77.3694 141.094 82.4454 140.734 82.4454 142.714C82.4454 143.668 81.5454 144.154 80.5374 144.154C78.7554 144.154 77.7474 142.786 77.7474 142.786L77.0454 143.632ZM85.1712 142.534C85.1712 144.334 86.7372 145.216 88.2492 145.216C90.5172 145.216 91.2732 143.254 91.2552 143.254H91.2912C91.2912 143.254 91.2732 143.524 91.2732 143.92C91.2732 144.658 91.5792 145 92.3532 145H93.5952V143.938H92.8392C92.5872 143.938 92.4432 143.812 92.4432 143.542V139.204C92.4432 137.26 91.7592 135.73 88.8972 135.73C88.1052 135.73 85.9452 136 85.9452 137.26V138.124H87.1152V137.548C87.1152 136.882 88.4292 136.756 88.8792 136.756C90.5352 136.756 91.2192 137.422 91.2192 139.312V139.42H90.7152C89.1492 139.42 85.1712 139.528 85.1712 142.534ZM86.4312 142.462C86.4312 140.428 89.2752 140.392 90.6972 140.392H91.2192V140.806C91.2192 142.372 90.1752 144.172 88.4472 144.172C87.0972 144.172 86.4312 143.308 86.4312 142.462ZM95.5445 145H96.7685V141.184C96.7685 140.608 96.8405 139.996 97.0205 139.42C97.4165 138.088 98.3705 137.08 99.6485 137.08C99.8825 137.08 100.099 137.116 100.099 137.116V135.91C100.099 135.91 99.8645 135.856 99.6125 135.856C98.1905 135.856 97.1825 136.9 96.7505 138.268H96.7145C96.7145 138.268 96.7505 137.962 96.7505 137.584V136.972C96.7505 136.252 96.4085 135.946 95.6525 135.946H94.3925V137.008H95.1485C95.4005 137.008 95.5445 137.152 95.5445 137.404V145ZM106.07 143.416C106.07 143.416 107.492 145.216 110.084 145.216C112.46 145.216 113.918 143.614 113.918 141.724C113.918 137.548 107.672 138.268 107.672 135.334C107.672 134.254 108.626 133.3 110.264 133.3C111.434 133.3 112.478 133.858 112.478 134.614V135.208H113.666V134.308C113.666 132.652 111.47 132.13 110.246 132.13C107.906 132.13 106.376 133.606 106.376 135.37C106.376 139.294 112.622 138.664 112.622 141.796C112.622 143.146 111.506 144.046 110.12 144.046C108.122 144.046 106.844 142.498 106.844 142.498L106.07 143.416ZM116.395 141.706C116.395 144.73 118.501 145.072 119.545 145.072C119.851 145.072 120.067 145.036 120.067 145.036V143.938C120.067 143.938 119.905 143.974 119.653 143.974C118.969 143.974 117.619 143.704 117.619 141.58V136.972H119.887V135.946H117.619V133.444H116.413V135.946H115.207V136.972H116.395V141.706ZM121.992 145H123.378V143.56H121.992V145ZM24.684 160.574C24.684 164.264 27.294 167.216 31.002 167.216C34.134 167.216 35.88 165.164 35.88 165.164L35.16 164.246C35.16 164.246 33.63 166.028 31.02 166.028C28.14 166.028 25.998 163.598 25.998 160.574C25.998 157.514 28.158 155.318 30.966 155.318C32.424 155.318 34.476 155.966 34.476 157.154V157.856H35.664V156.812C35.664 154.904 32.73 154.13 30.93 154.13C27.366 154.13 24.684 156.92 24.684 160.574ZM37.218 164.534C37.218 166.334 38.784 167.216 40.296 167.216C42.564 167.216 43.32 165.254 43.302 165.254H43.338C43.338 165.254 43.32 165.524 43.32 165.92C43.32 166.658 43.626 167 44.4 167H45.642V165.938H44.886C44.634 165.938 44.49 165.812 44.49 165.542V161.204C44.49 159.26 43.806 157.73 40.944 157.73C40.152 157.73 37.992 158 37.992 159.26V160.124H39.162V159.548C39.162 158.882 40.476 158.756 40.926 158.756C42.582 158.756 43.266 159.422 43.266 161.312V161.42H42.762C41.196 161.42 37.218 161.528 37.218 164.534ZM38.478 164.462C38.478 162.428 41.322 162.392 42.744 162.392H43.266V162.806C43.266 164.372 42.222 166.172 40.494 166.172C39.144 166.172 38.478 165.308 38.478 164.462ZM47.5914 167H48.8154V162.716C48.8154 162.302 48.8514 161.888 48.9594 161.51C49.3374 160.124 50.4354 158.846 51.9114 158.846C53.6214 158.846 53.8194 160.178 53.8194 161.546V167H55.0434V162.716C55.0434 162.23 55.0794 161.798 55.2054 161.402C55.5654 160.07 56.6994 158.846 58.0674 158.846C59.7234 158.846 60.0294 160.07 60.0294 161.546V165.902C60.0294 166.676 60.3534 167 61.1274 167H62.4054V165.938H61.6494C61.3974 165.938 61.2534 165.812 61.2534 165.542V161.24C61.2534 159.008 60.4434 157.73 58.2474 157.73C56.7174 157.73 55.4034 158.774 54.9174 159.998H54.8814C54.6114 158.504 53.7474 157.73 52.0734 157.73C50.6694 157.73 49.2474 158.792 48.7974 160.016H48.7614C48.7614 160.016 48.7974 159.728 48.7974 159.368V158.954C48.7974 158.27 48.4554 157.946 47.6994 157.946H46.4394V159.008H47.1954C47.4474 159.008 47.5914 159.152 47.5914 159.404V167ZM64.2893 167H65.4773V166.208C65.4773 165.776 65.4413 165.47 65.4413 165.47H65.4773C65.4773 165.47 66.2873 167.216 68.4473 167.216C70.8233 167.216 72.5333 165.344 72.5333 162.482C72.5333 159.674 71.0213 157.73 68.5913 157.73C66.2693 157.73 65.5133 159.458 65.5133 159.458H65.4773C65.4773 159.458 65.5133 159.134 65.5133 158.72V155.444C65.5133 154.67 65.1893 154.346 64.4153 154.346H63.1373V155.408H63.8933C64.1453 155.408 64.2893 155.552 64.2893 155.804V167ZM65.4773 162.5C65.4773 159.926 66.8993 158.846 68.4113 158.846C70.0853 158.846 71.2733 160.268 71.2733 162.482C71.2733 164.786 69.9593 166.136 68.3573 166.136C66.4133 166.136 65.4773 164.318 65.4773 162.5ZM74.8551 167H76.0791V163.184C76.0791 162.608 76.1511 161.996 76.3311 161.42C76.7271 160.088 77.6811 159.08 78.9591 159.08C79.1931 159.08 79.4091 159.116 79.4091 159.116V157.91C79.4091 157.91 79.1751 157.856 78.9231 157.856C77.5011 157.856 76.4931 158.9 76.0611 160.268H76.0251C76.0251 160.268 76.0611 159.962 76.0611 159.584V158.972C76.0611 158.252 75.7191 157.946 74.9631 157.946H73.7031V159.008H74.4591C74.7111 159.008 74.8551 159.152 74.8551 159.404V167ZM81.4305 155.894H82.6185V154.346H81.4305V155.894ZM81.4665 165.902C81.4665 166.676 81.7905 167 82.5645 167H83.8425V165.938H83.0865C82.8345 165.938 82.6905 165.812 82.6905 165.542V159.044C82.6905 158.27 82.3665 157.946 81.5925 157.946H80.3145V159.008H81.0705C81.3225 159.008 81.4665 159.152 81.4665 159.404V165.902ZM85.0841 162.464C85.0841 165.272 86.5961 167.216 89.0261 167.216C91.4021 167.216 92.1401 165.416 92.1401 165.416H92.1761C92.1761 165.416 92.1401 165.65 92.1401 165.992C92.1401 166.658 92.4641 167 93.2201 167H94.4801V165.938H93.7241C93.4721 165.938 93.3281 165.812 93.3281 165.542V155.444C93.3281 154.67 93.0041 154.346 92.2301 154.346H90.9521V155.408H91.7081C91.9601 155.408 92.1041 155.552 92.1041 155.804V158.738C92.1041 159.116 92.1401 159.422 92.1401 159.422H92.1041C92.1041 159.422 91.3481 157.73 89.1521 157.73C86.7761 157.73 85.0841 159.602 85.0841 162.464ZM89.2061 166.118C87.5141 166.118 86.3441 164.696 86.3441 162.464C86.3441 160.178 87.6581 158.828 89.2601 158.828C91.2041 158.828 92.1401 160.628 92.1401 162.464C92.1401 165.038 90.7181 166.118 89.2061 166.118ZM95.6662 162.302C95.6662 165.02 97.2682 166.946 99.6982 166.946C101.102 166.946 102.002 166.37 102.542 165.38H102.578C102.578 165.38 102.56 165.686 102.56 166.028V166.82C102.56 168.836 101.156 169.664 99.3922 169.664C98.0602 169.664 96.9442 169.034 96.9442 169.034L96.4762 170.06C97.3582 170.51 98.4022 170.78 99.4282 170.78C101.66 170.78 103.784 169.664 103.784 166.784V159.404C103.784 159.134 103.928 159.008 104.18 159.008H104.918V157.946H103.658C102.92 157.946 102.632 158.288 102.632 158.936C102.632 159.116 102.632 159.278 102.632 159.278H102.596C102.596 159.278 102.02 157.73 99.5902 157.73C97.1602 157.73 95.6662 159.584 95.6662 162.302ZM99.8782 165.848C98.0962 165.848 96.9262 164.444 96.9262 162.284C96.9262 160.124 97.9522 158.846 99.7162 158.846C101.318 158.846 102.578 159.656 102.578 162.302C102.578 164.966 101.318 165.848 99.8782 165.848ZM106.054 162.482C106.054 165.272 108.106 167.216 110.788 167.216C112.84 167.216 114.154 165.92 114.154 165.92L113.56 165.002C113.56 165.002 112.498 166.118 110.842 166.118C108.97 166.118 107.368 164.804 107.332 162.518H114.28C114.28 162.518 114.316 162.122 114.316 161.906C114.316 159.656 113.02 157.73 110.518 157.73C108.088 157.73 106.054 159.512 106.054 162.482ZM107.386 161.546C107.692 159.728 109.006 158.756 110.5 158.756C111.832 158.756 112.984 159.674 113.056 161.546H107.386ZM120.496 167H121.702C122.476 167 122.746 166.676 122.8 165.902L123.394 158.216C123.448 157.532 123.448 156.416 123.448 156.416H123.484C123.484 156.416 123.862 157.586 124.15 158.216L127.138 164.642H128.272L131.278 158.216C131.584 157.568 131.926 156.452 131.926 156.452H131.962C131.962 156.452 131.962 157.532 132.016 158.216L132.61 165.902C132.664 166.676 132.934 167 133.708 167H134.932V165.884H134.248C133.996 165.884 133.87 165.758 133.852 165.488L132.97 154.346H131.692L128.344 161.708C128.056 162.356 127.732 163.202 127.732 163.202H127.696C127.696 163.202 127.372 162.356 127.066 161.708L123.718 154.346H122.44L121.558 165.488C121.54 165.758 121.414 165.884 121.162 165.884H120.496V167ZM135.521 167H136.115C137.015 167 137.267 166.82 137.591 165.956L138.707 162.968H143.729L144.827 165.956C145.151 166.82 145.421 167 146.321 167H146.897V165.884H146.681C146.339 165.884 146.159 165.83 146.033 165.488L141.893 154.346H140.543L136.403 165.488C136.277 165.83 136.079 165.884 135.755 165.884H135.521V167ZM139.049 161.87L140.705 157.352C140.921 156.758 141.191 155.714 141.191 155.714H141.227C141.227 155.714 141.497 156.758 141.713 157.352L143.387 161.87H139.049ZM157.457 167.216C160.751 167.216 161.831 164.336 161.831 160.664C161.831 157.028 160.751 154.13 157.457 154.13C154.163 154.13 153.101 157.028 153.101 160.664C153.101 164.336 154.163 167.216 157.457 167.216ZM157.457 166.046C155.063 166.046 154.379 163.688 154.379 160.664C154.379 157.658 155.063 155.3 157.457 155.3C159.851 155.3 160.535 157.658 160.535 160.664C160.535 163.688 159.851 166.046 157.457 166.046ZM163.43 165.758C163.43 166.64 163.7 167 164.564 167H170.9C171.674 167 171.998 166.676 171.998 165.902V164.642H170.828V165.488C170.828 165.758 170.684 165.884 170.432 165.884H165.14C164.87 165.884 164.726 165.776 164.726 165.524C164.726 162.014 171.422 162.122 171.422 157.676C171.422 155.714 169.982 154.13 167.57 154.13C166.274 154.13 164.096 154.742 164.096 156.344V157.28H165.284V156.686C165.284 155.966 166.274 155.318 167.534 155.318C169.136 155.318 170.126 156.344 170.126 157.694C170.126 161.438 163.43 161.06 163.43 165.758ZM173.59 165.758C173.59 166.64 173.86 167 174.724 167H181.06C181.834 167 182.158 166.676 182.158 165.902V164.642H180.988V165.488C180.988 165.758 180.844 165.884 180.592 165.884H175.3C175.03 165.884 174.886 165.776 174.886 165.524C174.886 162.014 181.582 162.122 181.582 157.676C181.582 155.714 180.142 154.13 177.73 154.13C176.434 154.13 174.256 154.742 174.256 156.344V157.28H175.444V156.686C175.444 155.966 176.434 155.318 177.694 155.318C179.296 155.318 180.286 156.344 180.286 157.694C180.286 161.438 173.59 161.06 173.59 165.758ZM184.146 167H191.004V165.884H188.232V154.346H187.044L184.182 157.19L184.974 158L186.324 156.65C186.828 156.164 186.954 155.894 186.954 155.894H186.99C186.99 155.894 186.972 156.236 186.972 156.596V165.884H184.146V167ZM192.404 165.416C192.404 165.416 193.61 167.216 196.13 167.216C198.704 167.216 200.576 165.344 200.576 163.094C200.576 160.808 198.722 158.972 196.148 158.972C195.032 158.972 194.24 159.44 194.24 159.44H194.204C194.204 159.44 194.258 159.17 194.312 158.72L194.636 155.858C194.672 155.588 194.78 155.462 195.032 155.462H198.236C198.488 155.462 198.632 155.588 198.632 155.858V156.704H199.802V155.444C199.802 154.67 199.478 154.346 198.722 154.346H194.564C193.79 154.346 193.538 154.67 193.466 155.444L192.926 160.538L193.574 160.808C193.574 160.808 194.582 160.106 196.004 160.106C197.822 160.106 199.28 161.33 199.28 163.076C199.28 164.75 197.93 166.028 196.13 166.028C194.15 166.028 193.196 164.534 193.196 164.534L192.404 165.416Z" fill="black"/>
<path d="M356.856 139.908C356.856 145.344 360.492 147.432 363.984 147.432C367.476 147.432 371.112 145.38 371.112 139.908V123.888C371.112 122.34 370.464 121.692 368.916 121.692H361.536V123.924H367.8C368.304 123.924 368.592 124.176 368.592 124.716V139.836C368.592 143.724 366.252 145.056 364.02 145.056C361.752 145.056 359.376 143.76 359.376 139.764V138.9H356.856V139.908ZM375.608 137.856C375.608 143.328 379.892 147.432 385.184 147.432C390.44 147.432 394.724 143.328 394.724 137.856C394.724 132.492 390.44 128.46 385.148 128.46C379.892 128.46 375.608 132.492 375.608 137.856ZM378.128 137.856C378.128 133.752 381.296 130.692 385.184 130.692C389.036 130.692 392.204 133.752 392.204 137.856C392.204 142.068 389.036 145.236 385.184 145.236C381.296 145.236 378.128 142.068 378.128 137.856ZM398.883 147H401.331V138.324C401.331 137.46 401.403 136.632 401.619 135.912C402.447 132.888 405.111 130.764 408.171 130.764C411.699 130.764 412.131 133.284 412.131 136.128V144.804C412.131 146.352 412.779 147 414.327 147H416.883V144.876H415.371C414.867 144.876 414.579 144.624 414.579 144.084V135.48C414.579 131.016 412.995 128.46 408.495 128.46C404.427 128.46 402.015 131.232 401.331 132.96H401.259C401.259 132.96 401.331 132.312 401.331 131.484V123.816C401.331 122.34 400.683 121.692 399.135 121.692H396.579V123.816H398.091C398.595 123.816 398.883 124.104 398.883 124.608V147ZM420.788 147H423.236V138.324C423.236 137.46 423.308 136.632 423.524 135.876C424.352 132.888 427.016 130.764 430.112 130.764C433.604 130.764 434.036 133.284 434.036 136.128V144.804C434.036 146.352 434.684 147 436.232 147H438.788V144.876H437.276C436.772 144.876 436.484 144.624 436.484 144.084V135.48C436.484 131.016 434.9 128.46 430.4 128.46C426.152 128.46 423.848 131.376 423.2 133.032H423.128C423.128 133.032 423.2 132.456 423.2 131.736V130.908C423.2 129.54 422.516 128.892 421.004 128.892H418.484V131.016H419.996C420.5 131.016 420.788 131.304 420.788 131.808V147ZM453.219 144.804C453.219 146.352 453.867 147 455.415 147H461.031C468.663 147 473.739 142.392 473.739 134.328C473.739 126.336 468.663 121.692 461.031 121.692H450.879V123.924H453.219V144.804ZM455.739 143.976V123.924H460.779C466.971 123.924 471.111 127.596 471.111 134.328C471.111 141.096 467.007 144.768 460.779 144.768H456.531C456.027 144.768 455.739 144.516 455.739 143.976ZM476.717 137.856C476.717 143.328 481.001 147.432 486.293 147.432C491.549 147.432 495.833 143.328 495.833 137.856C495.833 132.492 491.549 128.46 486.257 128.46C481.001 128.46 476.717 132.492 476.717 137.856ZM479.237 137.856C479.237 133.752 482.405 130.692 486.293 130.692C490.145 130.692 493.313 133.752 493.313 137.856C493.313 142.068 490.145 145.236 486.293 145.236C482.405 145.236 479.237 142.068 479.237 137.856ZM498.725 137.964C498.725 143.544 502.829 147.432 508.193 147.432C512.297 147.432 514.925 144.84 514.925 144.84L513.737 143.004C513.737 143.004 511.613 145.236 508.301 145.236C504.557 145.236 501.353 142.608 501.281 138.036H515.177C515.177 138.036 515.249 137.244 515.249 136.812C515.249 132.312 512.657 128.46 507.653 128.46C502.793 128.46 498.725 132.024 498.725 137.964ZM501.389 136.092C502.001 132.456 504.629 130.512 507.617 130.512C510.281 130.512 512.585 132.348 512.729 136.092H501.389ZM362.495 181H373.163V179.264H368.851V161.316H367.003L362.551 165.74L363.783 167L365.883 164.9C366.667 164.144 366.863 163.724 366.863 163.724H366.919C366.919 163.724 366.891 164.256 366.891 164.816V179.264H362.495V181ZM375.196 179.068C375.196 180.44 375.616 181 376.96 181H386.816C388.02 181 388.524 180.496 388.524 179.292V177.332H386.704V178.648C386.704 179.068 386.48 179.264 386.088 179.264H377.856C377.436 179.264 377.212 179.096 377.212 178.704C377.212 173.244 387.628 173.412 387.628 166.496C387.628 163.444 385.388 160.98 381.636 160.98C379.62 160.98 376.232 161.932 376.232 164.424V165.88H378.08V164.956C378.08 163.836 379.62 162.828 381.58 162.828C384.072 162.828 385.612 164.424 385.612 166.524C385.612 172.348 375.196 171.76 375.196 179.068ZM390.552 178.592C390.552 178.592 392.96 181.336 396.852 181.336C400.576 181.336 403.348 178.536 403.348 175.204C403.348 170.976 399.736 169.548 397.272 169.408L403.068 162.604V161.316H393.072C391.868 161.316 391.42 161.82 391.42 163.024V164.984H393.24V163.668C393.24 163.248 393.464 163.052 393.856 163.052H398.98C400.016 163.052 400.576 162.968 400.576 162.968V163.024C400.576 163.024 400.044 163.472 399.568 164.116L394.724 169.94L395.172 171.088H396.544C399.036 171.088 401.332 172.572 401.332 175.232C401.332 177.752 399.204 179.488 396.88 179.488C393.744 179.488 391.728 177.136 391.728 177.136L390.552 178.592ZM412.862 181H414.738C415.942 181 416.362 180.496 416.446 179.292L417.37 167.336C417.454 166.272 417.454 164.536 417.454 164.536H417.51C417.51 164.536 418.098 166.356 418.546 167.336L423.194 177.332H424.958L429.634 167.336C430.11 166.328 430.642 164.592 430.642 164.592H430.698C430.698 164.592 430.698 166.272 430.782 167.336L431.706 179.292C431.79 180.496 432.21 181 433.414 181H435.318V179.264H434.254C433.862 179.264 433.666 179.068 433.638 178.648L432.266 161.316H430.278L425.07 172.768C424.622 173.776 424.118 175.092 424.118 175.092H424.062C424.062 175.092 423.558 173.776 423.082 172.768L417.874 161.316H415.886L414.514 178.648C414.486 179.068 414.29 179.264 413.898 179.264H412.862V181ZM437.018 177.164C437.018 179.964 439.454 181.336 441.806 181.336C445.334 181.336 446.51 178.284 446.482 178.284H446.538C446.538 178.284 446.51 178.704 446.51 179.32C446.51 180.468 446.986 181 448.19 181H450.122V179.348H448.946C448.554 179.348 448.33 179.152 448.33 178.732V171.984C448.33 168.96 447.266 166.58 442.814 166.58C441.582 166.58 438.222 167 438.222 168.96V170.304H440.042V169.408C440.042 168.372 442.086 168.176 442.786 168.176C445.362 168.176 446.426 169.212 446.426 172.152V172.32H445.642C443.206 172.32 437.018 172.488 437.018 177.164ZM438.978 177.052C438.978 173.888 443.402 173.832 445.614 173.832H446.426V174.476C446.426 176.912 444.802 179.712 442.114 179.712C440.014 179.712 438.978 178.368 438.978 177.052ZM453.239 163.724H455.087V161.316H453.239V163.724ZM453.295 179.292C453.295 180.496 453.799 181 455.003 181H456.991V179.348H455.815C455.423 179.348 455.199 179.152 455.199 178.732V168.624C455.199 167.42 454.695 166.916 453.491 166.916H451.503V168.568H452.679C453.071 168.568 453.295 168.792 453.295 169.184V179.292ZM460.182 181H462.086V174.252C462.086 173.58 462.142 172.936 462.31 172.348C462.954 170.024 465.026 168.372 467.434 168.372C470.15 168.372 470.486 170.332 470.486 172.544V179.292C470.486 180.496 470.99 181 472.194 181H474.182V179.348H473.006C472.614 179.348 472.39 179.152 472.39 178.732V172.04C472.39 168.568 471.158 166.58 467.658 166.58C464.354 166.58 462.562 168.848 462.058 170.136H462.002C462.002 170.136 462.058 169.688 462.058 169.128V168.484C462.058 167.42 461.526 166.916 460.35 166.916H458.39V168.568H459.566C459.958 168.568 460.182 168.792 460.182 169.184V181ZM483.446 178.536C483.446 178.536 485.658 181.336 489.69 181.336C493.386 181.336 495.654 178.844 495.654 175.904C495.654 169.408 485.938 170.528 485.938 165.964C485.938 164.284 487.422 162.8 489.97 162.8C491.79 162.8 493.414 163.668 493.414 164.844V165.768H495.262V164.368C495.262 161.792 491.846 160.98 489.942 160.98C486.302 160.98 483.922 163.276 483.922 166.02C483.922 172.124 493.638 171.144 493.638 176.016C493.638 178.116 491.902 179.516 489.746 179.516C486.638 179.516 484.65 177.108 484.65 177.108L483.446 178.536ZM499.506 175.876C499.506 180.58 502.782 181.112 504.406 181.112C504.882 181.112 505.218 181.056 505.218 181.056V179.348C505.218 179.348 504.966 179.404 504.574 179.404C503.51 179.404 501.41 178.984 501.41 175.68V168.512H504.938V166.916H501.41V163.024H499.534V166.916H497.658V168.512H499.506V175.876ZM508.213 181H510.369V178.76H508.213V181ZM327.331 213.292C327.331 214.496 327.835 215 329.039 215H334.107C337.411 215 339.987 212.984 339.987 209.484C339.987 207.104 338.699 205.172 336.683 204.612V204.556C338.111 203.856 339.203 202.428 339.203 200.272C339.203 197.192 336.963 195.316 333.883 195.316H325.511V197.052H327.331V213.292ZM329.291 203.856V197.052H333.827C335.899 197.052 337.187 198.396 337.187 200.412C337.187 202.456 335.843 203.856 333.855 203.856H329.291ZM329.291 212.648V205.536H334.079C336.375 205.536 337.943 207.076 337.943 209.428C337.943 211.78 336.487 213.264 334.107 213.264H329.907C329.515 213.264 329.291 213.068 329.291 212.648ZM342.491 207.888C342.491 212.144 345.823 215.336 349.939 215.336C354.027 215.336 357.359 212.144 357.359 207.888C357.359 203.716 354.027 200.58 349.911 200.58C345.823 200.58 342.491 203.716 342.491 207.888ZM344.451 207.888C344.451 204.696 346.915 202.316 349.939 202.316C352.935 202.316 355.399 204.696 355.399 207.888C355.399 211.164 352.935 213.628 349.939 213.628C346.915 213.628 344.451 211.164 344.451 207.888ZM359.3 212.872C359.3 212.872 361.036 215.336 364.704 215.336C367.504 215.336 369.632 213.74 369.632 211.388C369.632 206.712 361.736 207.44 361.736 204.276C361.736 202.904 362.912 202.232 364.872 202.232C365.796 202.232 367.308 202.624 367.308 203.66V204.332H369.1V203.128C369.1 201.14 366.244 200.58 364.816 200.58C361.988 200.58 359.804 201.84 359.804 204.388C359.804 208.924 367.7 208.364 367.7 211.444C367.7 212.928 366.3 213.684 364.732 213.684C361.96 213.684 360.392 211.556 360.392 211.556L359.3 212.872ZM373.424 209.876C373.424 214.58 376.7 215.112 378.324 215.112C378.8 215.112 379.136 215.056 379.136 215.056V213.348C379.136 213.348 378.884 213.404 378.492 213.404C377.428 213.404 375.328 212.984 375.328 209.68V202.512H378.856V200.916H375.328V197.024H373.452V200.916H371.576V202.512H373.424V209.876ZM381.046 207.888C381.046 212.144 384.378 215.336 388.494 215.336C392.582 215.336 395.914 212.144 395.914 207.888C395.914 203.716 392.582 200.58 388.466 200.58C384.378 200.58 381.046 203.716 381.046 207.888ZM383.006 207.888C383.006 204.696 385.47 202.316 388.494 202.316C391.49 202.316 393.954 204.696 393.954 207.888C393.954 211.164 391.49 213.628 388.494 213.628C385.47 213.628 383.006 211.164 383.006 207.888ZM399.479 215H401.383V208.252C401.383 207.58 401.439 206.936 401.607 206.348C402.251 204.024 404.323 202.372 406.731 202.372C409.447 202.372 409.783 204.332 409.783 206.544V213.292C409.783 214.496 410.287 215 411.491 215H413.479V213.348H412.303C411.911 213.348 411.687 213.152 411.687 212.732V206.04C411.687 202.568 410.455 200.58 406.955 200.58C403.651 200.58 401.859 202.848 401.355 204.136H401.299C401.299 204.136 401.355 203.688 401.355 203.128V202.484C401.355 201.42 400.823 200.916 399.647 200.916H397.687V202.568H398.863C399.255 202.568 399.479 202.792 399.479 203.184V215ZM422.323 215H424.199C425.403 215 425.823 214.496 425.907 213.292L426.831 201.336C426.915 200.272 426.915 198.536 426.915 198.536H426.971C426.971 198.536 427.559 200.356 428.007 201.336L432.655 211.332H434.419L439.095 201.336C439.571 200.328 440.103 198.592 440.103 198.592H440.159C440.159 198.592 440.159 200.272 440.243 201.336L441.167 213.292C441.251 214.496 441.671 215 442.875 215H444.779V213.264H443.715C443.323 213.264 443.127 213.068 443.099 212.648L441.727 195.316H439.739L434.531 206.768C434.083 207.776 433.579 209.092 433.579 209.092H433.523C433.523 209.092 433.019 207.776 432.543 206.768L427.335 195.316H425.347L423.975 212.648C423.947 213.068 423.751 213.264 423.359 213.264H422.323V215ZM445.695 215H446.619C448.019 215 448.411 214.72 448.915 213.376L450.651 208.728H458.463L460.171 213.376C460.675 214.72 461.095 215 462.495 215H463.391V213.264H463.055C462.523 213.264 462.243 213.18 462.047 212.648L455.607 195.316H453.507L447.067 212.648C446.871 213.18 446.563 213.264 446.059 213.264H445.695V215ZM451.183 207.02L453.759 199.992C454.095 199.068 454.515 197.444 454.515 197.444H454.571C454.571 197.444 454.991 199.068 455.327 199.992L457.931 207.02H451.183ZM479.819 215.336C484.943 215.336 486.623 210.856 486.623 205.144C486.623 199.488 484.943 194.98 479.819 194.98C474.695 194.98 473.043 199.488 473.043 205.144C473.043 210.856 474.695 215.336 479.819 215.336ZM479.819 213.516C476.095 213.516 475.031 209.848 475.031 205.144C475.031 200.468 476.095 196.8 479.819 196.8C483.543 196.8 484.607 200.468 484.607 205.144C484.607 209.848 483.543 213.516 479.819 213.516ZM489.11 213.068C489.11 214.44 489.53 215 490.874 215H500.73C501.934 215 502.438 214.496 502.438 213.292V211.332H500.618V212.648C500.618 213.068 500.394 213.264 500.002 213.264H491.77C491.35 213.264 491.126 213.096 491.126 212.704C491.126 207.244 501.542 207.412 501.542 200.496C501.542 197.444 499.302 194.98 495.55 194.98C493.534 194.98 490.146 195.932 490.146 198.424V199.88H491.994V198.956C491.994 197.836 493.534 196.828 495.494 196.828C497.986 196.828 499.526 198.424 499.526 200.524C499.526 206.348 489.11 205.76 489.11 213.068ZM504.914 213.068C504.914 214.44 505.334 215 506.678 215H516.534C517.738 215 518.242 214.496 518.242 213.292V211.332H516.422V212.648C516.422 213.068 516.198 213.264 515.806 213.264H507.574C507.154 213.264 506.93 213.096 506.93 212.704C506.93 207.244 517.346 207.412 517.346 200.496C517.346 197.444 515.106 194.98 511.354 194.98C509.338 194.98 505.95 195.932 505.95 198.424V199.88H507.798V198.956C507.798 197.836 509.338 196.828 511.298 196.828C513.79 196.828 515.33 198.424 515.33 200.524C515.33 206.348 504.914 205.76 504.914 213.068ZM521.335 215H532.003V213.264H527.691V195.316H525.843L521.391 199.74L522.623 201L524.723 198.9C525.507 198.144 525.703 197.724 525.703 197.724H525.759C525.759 197.724 525.731 198.256 525.731 198.816V213.264H521.335V215ZM534.18 212.536C534.18 212.536 536.056 215.336 539.976 215.336C543.98 215.336 546.892 212.424 546.892 208.924C546.892 205.368 544.008 202.512 540.004 202.512C538.268 202.512 537.036 203.24 537.036 203.24H536.98C536.98 203.24 537.064 202.82 537.148 202.12L537.652 197.668C537.708 197.248 537.876 197.052 538.268 197.052H543.252C543.644 197.052 543.868 197.248 543.868 197.668V198.984H545.688V197.024C545.688 195.82 545.184 195.316 544.008 195.316H537.54C536.336 195.316 535.944 195.82 535.832 197.024L534.992 204.948L536 205.368C536 205.368 537.568 204.276 539.78 204.276C542.608 204.276 544.876 206.18 544.876 208.896C544.876 211.5 542.776 213.488 539.976 213.488C536.896 213.488 535.412 211.164 535.412 211.164L534.18 212.536Z" fill="black"/>
<rect x="766" y="18" width="90" height="86" fill="#C4C4C4"/>
</svg>
