<svg width="500" height="648" viewBox="0 0 500 648" fill="none" xmlns="http://www.w3.org/2000/svg">
<rect width="500" height="648" fill="#E5E5E5"/>
<rect x="0.5" y="0.5" width="499" height="646.058" fill="white" stroke="black"/>
<path d="M50.0735 73.7111C49.9453 73.3243 49.7412 73.247 49.3575 73.247H49V70.4616H51.2241C52.2976 70.4616 52.8088 70.7968 53.0644 71.8027L54.9817 79.1002C55.1606 79.7963 55.2373 80.4925 55.2373 80.4925H55.2884C55.2884 80.4925 55.3907 79.7959 55.5951 79.1002L57.9981 70.5136H60.8612L63.2893 79.1002C63.4942 79.7963 63.5709 80.4925 63.5709 80.4925H63.622C63.622 80.4925 63.6987 79.7959 63.8776 79.1002L65.7694 71.8027C66.025 70.7972 66.5362 70.4616 67.6097 70.4616H69.8337V73.247H69.4762C69.0925 73.247 68.9136 73.3243 68.7602 73.7111L65.6416 83.613H61.9854L59.7614 76.1093C59.5569 75.4128 59.4547 74.6908 59.4547 74.6908H59.4035C59.4035 74.6908 59.2754 75.4128 59.0713 76.1093L56.8728 83.613H53.1922L50.0735 73.7111Z" fill="#553F2E"/>
<path d="M72.3105 73.8142C72.3105 73.4271 72.1056 73.247 71.7482 73.247H70.7254V70.4616H73.8185C75.0202 70.4616 75.531 71.0035 75.531 72.2153V80.2862C75.531 80.6472 75.7358 80.8534 76.0937 80.8534H77.1161V83.6126H74.023C72.8217 83.6126 72.3105 83.097 72.3105 81.859V73.8142Z" fill="#553F2E"/>
<path d="M79.8502 73.0665H78.2399V70.462H79.8502V70.0753C79.8502 65.7691 83.3523 65.2019 85.1674 65.2019C85.8319 65.2019 86.2668 65.2792 86.2668 65.2792V68.0642C86.2668 68.0642 85.9853 68.0126 85.6022 68.0126C84.6817 68.0126 83.097 68.2447 83.097 70.153V70.4624H85.8834V73.0669H83.0967V83.6134H79.8502V73.0665V73.0665Z" fill="#553F2E"/>
<path d="M89.6907 86.2691C90.5853 86.2691 91.3777 85.7272 91.8377 84.5928L92.2722 83.5872L87.9267 73.7115C87.7734 73.3247 87.5945 73.2474 87.2366 73.2474H86.8529V70.462H89.0002C89.9208 70.462 90.3805 70.7972 90.7127 71.6996L93.2691 78.2755C93.5247 78.9459 93.7291 80.0288 93.7291 80.0288H93.7806C93.7806 80.0288 93.9851 78.9462 94.2148 78.2755L96.4388 71.6996C96.7456 70.7972 97.2827 70.462 98.1773 70.462H100.376V73.2474H99.9924C99.6086 73.2474 99.4045 73.3247 99.2511 73.7115L94.573 85.5987C93.6525 87.9708 91.8122 89.0282 89.8693 89.0282C87.8241 89.0282 86.5721 87.6875 86.5721 87.6875L87.8245 85.3666C87.8245 85.3663 88.6172 86.2691 89.6907 86.2691Z" fill="#553F2E"/>
<path d="M70.2514 65.2181L73.4267 68.4211L76.6023 65.2181C75.7899 64.397 74.6674 63.8902 73.4267 63.8902C72.1867 63.8902 71.0642 64.397 70.2514 65.2181Z" fill="#553F2E"/>
<path d="M63.9042 58.815L67.0766 62.0136C68.7014 60.3749 70.9478 59.3605 73.4271 59.3605C75.9071 59.3605 78.1527 60.3749 79.7783 62.0136L82.9506 58.815C80.5107 56.353 77.1431 54.8296 73.4274 54.8296C69.7121 54.8296 66.3437 56.3534 63.9042 58.815Z" fill="#553F2E"/>
<path d="M57.5552 52.4107L60.725 55.6068C63.9758 52.3275 68.467 50.3006 73.4271 50.3006C78.3878 50.3006 82.879 52.3275 86.1291 55.6068L89.2989 52.4107C85.2324 48.309 79.6183 45.7686 73.4267 45.7686C67.2361 45.7686 61.6218 48.309 57.5552 52.4107Z" fill="#553F2E"/>
<path d="M73.4267 41.3342C80.3694 41.3342 86.6988 43.9829 91.4777 48.3325C91.6877 47.5303 91.8056 46.6909 91.8056 45.8223C91.8056 40.3975 87.4466 36 82.0688 36C78.309 36 75.0497 38.1507 73.4267 41.2977C71.8044 38.1507 68.5452 36 64.7853 36C59.4072 36 55.0485 40.3975 55.0485 45.8223C55.0485 46.6909 55.1665 47.5307 55.3764 48.3325C60.1561 43.9829 66.485 41.3342 73.4267 41.3342Z" fill="#B3CC1F"/>
<path d="M103.314 73.8142C103.314 73.4271 103.11 73.247 102.752 73.247H101.729V70.4616H104.72C105.87 70.4616 106.432 71.0035 106.432 71.9317V72.3184C106.432 72.602 106.407 72.8856 106.407 72.8856H106.458C107.072 71.5965 108.631 70.1522 110.676 70.1522C112.644 70.1522 113.922 71.0808 114.485 72.8599H114.536C115.226 71.4418 116.914 70.1522 118.984 70.1522C121.694 70.1522 123.253 71.6992 123.253 75.1546V80.2862C123.253 80.6472 123.458 80.8534 123.815 80.8534H124.812V83.6126H121.745C120.518 83.6126 120.006 83.097 120.006 81.859V75.7737C120.006 74.2779 119.725 73.1435 118.217 73.1435C116.607 73.1435 115.456 74.51 115.099 76.1601C114.945 76.6758 114.894 77.2176 114.894 77.8364V83.6126H111.647V75.7737C111.647 74.3553 111.443 73.1435 109.884 73.1435C108.248 73.1435 107.148 74.51 106.739 76.1863C106.612 76.7019 106.535 77.2434 106.535 77.8364V83.6126H103.314V73.8142V73.8142Z" fill="#B3CC1F"/>
<path d="M132.223 70.1526C135.955 70.1526 138 72.9118 138 76.3929C138 76.7797 137.923 77.6047 137.923 77.6047H128.925C129.181 79.9256 130.868 81.1374 132.837 81.1374C134.932 81.1374 136.492 79.6678 136.492 79.6678L137.847 81.9367C137.847 81.9367 135.853 83.9224 132.606 83.9224C128.286 83.9224 125.602 80.7765 125.602 77.0379C125.602 72.9892 128.312 70.1526 132.223 70.1526ZM134.677 75.3354C134.626 73.7623 133.553 72.6794 132.223 72.6794C130.561 72.6794 129.386 73.6849 129.028 75.3354H134.677Z" fill="#B3CC1F"/>
<path d="M319.432 79.454C319.432 82.172 321.25 83.216 322.996 83.216C324.742 83.216 326.56 82.19 326.56 79.454V71.444C326.56 70.67 326.236 70.346 325.462 70.346H321.772V71.462H324.904C325.156 71.462 325.3 71.588 325.3 71.858V79.418C325.3 81.362 324.13 82.028 323.014 82.028C321.88 82.028 320.692 81.38 320.692 79.382V78.95H319.432V79.454ZM328.808 78.428C328.808 81.164 330.95 83.216 333.596 83.216C336.224 83.216 338.366 81.164 338.366 78.428C338.366 75.746 336.224 73.73 333.578 73.73C330.95 73.73 328.808 75.746 328.808 78.428ZM330.068 78.428C330.068 76.376 331.652 74.846 333.596 74.846C335.522 74.846 337.106 76.376 337.106 78.428C337.106 80.534 335.522 82.118 333.596 82.118C331.652 82.118 330.068 80.534 330.068 78.428ZM340.446 83H341.67V78.662C341.67 78.23 341.706 77.816 341.814 77.456C342.228 75.944 343.56 74.882 345.09 74.882C346.854 74.882 347.07 76.142 347.07 77.564V81.902C347.07 82.676 347.394 83 348.168 83H349.446V81.938H348.69C348.438 81.938 348.294 81.812 348.294 81.542V77.24C348.294 75.008 347.502 73.73 345.252 73.73C343.218 73.73 342.012 75.116 341.67 75.98H341.634C341.634 75.98 341.67 75.656 341.67 75.242V71.408C341.67 70.67 341.346 70.346 340.572 70.346H339.294V71.408H340.05C340.302 71.408 340.446 71.552 340.446 71.804V83ZM351.398 83H352.622V78.662C352.622 78.23 352.658 77.816 352.766 77.438C353.18 75.944 354.512 74.882 356.06 74.882C357.806 74.882 358.022 76.142 358.022 77.564V81.902C358.022 82.676 358.346 83 359.12 83H360.398V81.938H359.642C359.39 81.938 359.246 81.812 359.246 81.542V77.24C359.246 75.008 358.454 73.73 356.204 73.73C354.08 73.73 352.928 75.188 352.604 76.016H352.568C352.568 76.016 352.604 75.728 352.604 75.368V74.954C352.604 74.27 352.262 73.946 351.506 73.946H350.246V75.008H351.002C351.254 75.008 351.398 75.152 351.398 75.404V83ZM367.614 81.902C367.614 82.676 367.938 83 368.712 83H371.52C375.336 83 377.874 80.696 377.874 76.664C377.874 72.668 375.336 70.346 371.52 70.346H366.444V71.462H367.614V81.902ZM368.874 81.488V71.462H371.394C374.49 71.462 376.56 73.298 376.56 76.664C376.56 80.048 374.508 81.884 371.394 81.884H369.27C369.018 81.884 368.874 81.758 368.874 81.488ZM379.363 78.428C379.363 81.164 381.505 83.216 384.151 83.216C386.779 83.216 388.921 81.164 388.921 78.428C388.921 75.746 386.779 73.73 384.133 73.73C381.505 73.73 379.363 75.746 379.363 78.428ZM380.623 78.428C380.623 76.376 382.207 74.846 384.151 74.846C386.077 74.846 387.661 76.376 387.661 78.428C387.661 80.534 386.077 82.118 384.151 82.118C382.207 82.118 380.623 80.534 380.623 78.428ZM390.366 78.482C390.366 81.272 392.418 83.216 395.1 83.216C397.152 83.216 398.466 81.92 398.466 81.92L397.872 81.002C397.872 81.002 396.81 82.118 395.154 82.118C393.282 82.118 391.68 80.804 391.644 78.518H398.592C398.592 78.518 398.628 78.122 398.628 77.906C398.628 75.656 397.332 73.73 394.83 73.73C392.4 73.73 390.366 75.512 390.366 78.482ZM391.698 77.546C392.004 75.728 393.318 74.756 394.812 74.756C396.144 74.756 397.296 75.674 397.368 77.546H391.698ZM319.264 97H320.068C320.584 97 320.764 96.784 320.8 96.268L321.196 91.144C321.232 90.688 321.232 89.944 321.232 89.944H321.256C321.256 89.944 321.508 90.724 321.7 91.144L323.692 95.428H324.448L326.452 91.144C326.656 90.712 326.884 89.968 326.884 89.968H326.908C326.908 89.968 326.908 90.688 326.944 91.144L327.34 96.268C327.376 96.784 327.556 97 328.072 97H328.888V96.256H328.432C328.264 96.256 328.18 96.172 328.168 95.992L327.58 88.564H326.728L324.496 93.472C324.304 93.904 324.088 94.468 324.088 94.468H324.064C324.064 94.468 323.848 93.904 323.644 93.472L321.412 88.564H320.56L319.972 95.992C319.96 96.172 319.876 96.256 319.708 96.256H319.264V97ZM329.617 95.356C329.617 96.556 330.661 97.144 331.669 97.144C333.181 97.144 333.685 95.836 333.673 95.836H333.697C333.697 95.836 333.685 96.016 333.685 96.28C333.685 96.772 333.889 97 334.405 97H335.233V96.292H334.729C334.561 96.292 334.465 96.208 334.465 96.028V93.136C334.465 91.84 334.009 90.82 332.101 90.82C331.573 90.82 330.133 91 330.133 91.84V92.416H330.913V92.032C330.913 91.588 331.789 91.504 332.089 91.504C333.193 91.504 333.649 91.948 333.649 93.208V93.28H333.313C332.269 93.28 329.617 93.352 329.617 95.356ZM330.457 95.308C330.457 93.952 332.353 93.928 333.301 93.928H333.649V94.204C333.649 95.248 332.953 96.448 331.801 96.448C330.901 96.448 330.457 95.872 330.457 95.308ZM336.532 97H337.348V94.108C337.348 93.82 337.372 93.544 337.444 93.292C337.72 92.296 338.608 91.588 339.64 91.588C340.804 91.588 340.948 92.428 340.948 93.376V96.268C340.948 96.784 341.164 97 341.68 97H342.532V96.292H342.028C341.86 96.292 341.764 96.208 341.764 96.028V93.16C341.764 91.672 341.236 90.82 339.736 90.82C338.32 90.82 337.552 91.792 337.336 92.344H337.312C337.312 92.344 337.336 92.152 337.336 91.912V91.636C337.336 91.18 337.108 90.964 336.604 90.964H335.764V91.672H336.268C336.436 91.672 336.532 91.768 336.532 91.936V97ZM343.269 95.356C343.269 96.556 344.313 97.144 345.321 97.144C346.833 97.144 347.337 95.836 347.325 95.836H347.349C347.349 95.836 347.337 96.016 347.337 96.28C347.337 96.772 347.541 97 348.057 97H348.885V96.292H348.381C348.213 96.292 348.117 96.208 348.117 96.028V93.136C348.117 91.84 347.661 90.82 345.753 90.82C345.225 90.82 343.785 91 343.785 91.84V92.416H344.565V92.032C344.565 91.588 345.441 91.504 345.741 91.504C346.845 91.504 347.301 91.948 347.301 93.208V93.28H346.965C345.921 93.28 343.269 93.352 343.269 95.356ZM344.109 95.308C344.109 93.952 346.005 93.928 346.953 93.928H347.301V94.204C347.301 95.248 346.605 96.448 345.453 96.448C344.553 96.448 344.109 95.872 344.109 95.308ZM349.645 93.868C349.645 95.68 350.713 96.964 352.333 96.964C353.269 96.964 353.869 96.58 354.229 95.92H354.253C354.253 95.92 354.241 96.124 354.241 96.352V96.88C354.241 98.224 353.305 98.776 352.129 98.776C351.241 98.776 350.497 98.356 350.497 98.356L350.185 99.04C350.773 99.34 351.469 99.52 352.153 99.52C353.641 99.52 355.057 98.776 355.057 96.856V91.936C355.057 91.756 355.153 91.672 355.321 91.672H355.813V90.964H354.973C354.481 90.964 354.289 91.192 354.289 91.624C354.289 91.744 354.289 91.852 354.289 91.852H354.265C354.265 91.852 353.881 90.82 352.261 90.82C350.641 90.82 349.645 92.056 349.645 93.868ZM352.453 96.232C351.265 96.232 350.485 95.296 350.485 93.856C350.485 92.416 351.169 91.564 352.345 91.564C353.413 91.564 354.253 92.104 354.253 93.868C354.253 95.644 353.413 96.232 352.453 96.232ZM356.57 93.988C356.57 95.848 357.938 97.144 359.726 97.144C361.094 97.144 361.97 96.28 361.97 96.28L361.574 95.668C361.574 95.668 360.866 96.412 359.762 96.412C358.514 96.412 357.446 95.536 357.422 94.012H362.054C362.054 94.012 362.078 93.748 362.078 93.604C362.078 92.104 361.214 90.82 359.546 90.82C357.926 90.82 356.57 92.008 356.57 93.988ZM357.458 93.364C357.662 92.152 358.538 91.504 359.534 91.504C360.422 91.504 361.19 92.116 361.238 93.364H357.458ZM363.708 97H364.524V94.456C364.524 94.072 364.572 93.664 364.692 93.28C364.956 92.392 365.592 91.72 366.444 91.72C366.6 91.72 366.744 91.744 366.744 91.744V90.94C366.744 90.94 366.588 90.904 366.42 90.904C365.472 90.904 364.8 91.6 364.512 92.512H364.488C364.488 92.512 364.512 92.308 364.512 92.056V91.648C364.512 91.168 364.284 90.964 363.78 90.964H362.94V91.672H363.444C363.612 91.672 363.708 91.768 363.708 91.936V97ZM320.368 103.596H321.148V102.564H320.368V103.596ZM318.748 112.728V113.436C318.748 113.436 318.88 113.472 319.096 113.472C319.78 113.472 321.196 113.232 321.196 111.228V105.696C321.196 105.18 320.98 104.964 320.464 104.964H319.612V105.672H320.116C320.284 105.672 320.38 105.768 320.38 105.936V111.192C320.38 112.572 319.48 112.74 319.012 112.74C318.856 112.74 318.748 112.728 318.748 112.728ZM322.691 107.952C322.691 109.776 324.119 111.144 325.883 111.144C327.635 111.144 329.063 109.776 329.063 107.952C329.063 106.164 327.635 104.82 325.871 104.82C324.119 104.82 322.691 106.164 322.691 107.952ZM323.531 107.952C323.531 106.584 324.587 105.564 325.883 105.564C327.167 105.564 328.223 106.584 328.223 107.952C328.223 109.356 327.167 110.412 325.883 110.412C324.587 110.412 323.531 109.356 323.531 107.952ZM330.449 111H331.265V108.108C331.265 107.82 331.289 107.544 331.361 107.304C331.637 106.296 332.525 105.588 333.545 105.588C334.721 105.588 334.865 106.428 334.865 107.376V110.268C334.865 110.784 335.081 111 335.597 111H336.449V110.292H335.945C335.777 110.292 335.681 110.208 335.681 110.028V107.16C335.681 105.672 335.153 104.82 333.653 104.82C332.297 104.82 331.493 105.744 331.265 106.32H331.241C331.241 106.32 331.265 106.104 331.265 105.828V103.272C331.265 102.78 331.049 102.564 330.533 102.564H329.681V103.272H330.185C330.353 103.272 330.449 103.368 330.449 103.536V111ZM337.751 111H338.567V108.108C338.567 107.82 338.591 107.544 338.663 107.292C338.939 106.296 339.827 105.588 340.859 105.588C342.023 105.588 342.167 106.428 342.167 107.376V110.268C342.167 110.784 342.383 111 342.899 111H343.751V110.292H343.247C343.079 110.292 342.983 110.208 342.983 110.028V107.16C342.983 105.672 342.455 104.82 340.955 104.82C339.539 104.82 338.771 105.792 338.555 106.344H338.531C338.531 106.344 338.555 106.152 338.555 105.912V105.636C338.555 105.18 338.327 104.964 337.823 104.964H336.983V105.672H337.487C337.655 105.672 337.751 105.768 337.751 105.936V111ZM344.512 107.976C344.512 109.848 345.52 111.144 347.14 111.144C348.724 111.144 349.216 109.944 349.216 109.944H349.24C349.24 109.944 349.216 110.1 349.216 110.328C349.216 110.772 349.432 111 349.936 111H350.776V110.292H350.272C350.104 110.292 350.008 110.208 350.008 110.028V103.296C350.008 102.78 349.792 102.564 349.276 102.564H348.424V103.272H348.928C349.096 103.272 349.192 103.368 349.192 103.536V105.492C349.192 105.744 349.216 105.948 349.216 105.948H349.192C349.192 105.948 348.688 104.82 347.224 104.82C345.64 104.82 344.512 106.068 344.512 107.976ZM347.26 110.412C346.132 110.412 345.352 109.464 345.352 107.976C345.352 106.452 346.228 105.552 347.296 105.552C348.592 105.552 349.216 106.752 349.216 107.976C349.216 109.692 348.268 110.412 347.26 110.412ZM351.555 108.096C351.555 110.532 353.451 112.488 355.947 112.488V111.768C353.895 111.768 352.395 110.136 352.395 108.096C352.395 106.08 353.919 104.4 355.887 104.4C357.303 104.4 357.927 105.06 357.951 105.804H356.391C354.999 105.804 353.991 106.872 353.991 108.108C353.991 109.356 355.011 110.412 356.391 110.412H359.619V109.74H358.767V105.96C358.767 104.796 357.999 103.692 355.827 103.692C353.475 103.692 351.555 105.648 351.555 108.096ZM354.831 108.096C354.831 107.196 355.539 106.44 356.487 106.44H357.951V109.74H356.463C355.539 109.74 354.831 109.008 354.831 108.096ZM362.358 111H363.27L364.734 106.704C364.842 106.404 364.926 106.056 364.926 106.056H364.95C364.95 106.056 365.034 106.404 365.13 106.704L366.606 111H367.506L369.234 105.948C369.306 105.732 369.45 105.672 369.654 105.672H369.822V104.964H369.402C368.826 104.964 368.634 105.072 368.454 105.636L367.206 109.464C367.11 109.764 367.038 110.112 367.038 110.112H367.014C367.014 110.112 366.918 109.752 366.822 109.464L365.346 104.988H364.53L363.054 109.464C362.958 109.752 362.862 110.112 362.862 110.112H362.838C362.838 110.112 362.754 109.752 362.658 109.464L361.422 105.636C361.242 105.072 361.05 104.964 360.474 104.964H360.054V105.672H360.21C360.426 105.672 360.558 105.732 360.63 105.948L362.358 111ZM371.021 103.596H371.813V102.564H371.021V103.596ZM371.045 110.268C371.045 110.784 371.261 111 371.777 111H372.629V110.292H372.125C371.957 110.292 371.861 110.208 371.861 110.028V105.696C371.861 105.18 371.645 104.964 371.129 104.964H370.277V105.672H370.781C370.949 105.672 371.045 105.768 371.045 105.936V110.268ZM374.009 111H374.825V105.648H376.361V104.964H374.825V104.748C374.825 103.404 375.713 103.236 376.169 103.236C376.349 103.236 376.457 103.26 376.457 103.26V102.528C376.457 102.528 376.313 102.504 376.085 102.504C375.413 102.504 374.009 102.756 374.009 104.748V104.964H373.253V105.648H374.009V111ZM377.089 112.332L376.705 112.932C376.705 112.932 377.173 113.52 378.013 113.52C378.817 113.52 379.429 113.028 379.741 112.26L382.345 105.948C382.429 105.732 382.549 105.672 382.765 105.672H382.885V104.964H382.513C381.961 104.964 381.781 105.084 381.577 105.624L380.089 109.392C379.969 109.692 379.885 110.04 379.885 110.04H379.861C379.861 110.04 379.765 109.692 379.645 109.392L378.097 105.624C377.881 105.084 377.713 104.964 377.173 104.964H376.801V105.672H376.921C377.137 105.672 377.245 105.732 377.341 105.948L379.465 110.976L379.105 111.804C378.877 112.356 378.517 112.788 377.989 112.788C377.473 112.788 377.089 112.344 377.089 112.332ZM383.367 111H384.291V110.04H383.367V111ZM386.161 111H386.977V108.144C386.977 107.868 387.001 107.592 387.073 107.34C387.325 106.416 388.057 105.564 389.041 105.564C390.181 105.564 390.313 106.452 390.313 107.364V111H391.129V108.144C391.129 107.82 391.153 107.532 391.237 107.268C391.477 106.38 392.233 105.564 393.145 105.564C394.249 105.564 394.453 106.38 394.453 107.364V110.268C394.453 110.784 394.669 111 395.185 111H396.037V110.292H395.533C395.365 110.292 395.269 110.208 395.269 110.028V107.16C395.269 105.672 394.729 104.82 393.265 104.82C392.245 104.82 391.369 105.516 391.045 106.332H391.021C390.841 105.336 390.265 104.82 389.149 104.82C388.213 104.82 387.265 105.528 386.965 106.344H386.941C386.941 106.344 386.965 106.152 386.965 105.912V105.636C386.965 105.18 386.737 104.964 386.233 104.964H385.393V105.672H385.897C386.065 105.672 386.161 105.768 386.161 105.936V111ZM396.765 107.988C396.765 109.848 398.133 111.144 399.921 111.144C401.289 111.144 402.165 110.28 402.165 110.28L401.769 109.668C401.769 109.668 401.061 110.412 399.957 110.412C398.709 110.412 397.641 109.536 397.617 108.012H402.249C402.249 108.012 402.273 107.748 402.273 107.604C402.273 106.104 401.409 104.82 399.741 104.82C398.121 104.82 396.765 106.008 396.765 107.988ZM397.653 107.364C397.857 106.152 398.733 105.504 399.729 105.504C400.617 105.504 401.385 106.116 401.433 107.364H397.653ZM319.648 123.944C319.648 123.944 320.452 125.144 322.132 125.144C323.848 125.144 325.096 123.896 325.096 122.396C325.096 120.872 323.86 119.648 322.144 119.648C321.4 119.648 320.872 119.96 320.872 119.96H320.848C320.848 119.96 320.884 119.78 320.92 119.48L321.136 117.572C321.16 117.392 321.232 117.308 321.4 117.308H323.536C323.704 117.308 323.8 117.392 323.8 117.572V118.136H324.58V117.296C324.58 116.78 324.364 116.564 323.86 116.564H321.088C320.572 116.564 320.404 116.78 320.356 117.296L319.996 120.692L320.428 120.872C320.428 120.872 321.1 120.404 322.048 120.404C323.26 120.404 324.232 121.22 324.232 122.384C324.232 123.5 323.332 124.352 322.132 124.352C320.812 124.352 320.176 123.356 320.176 123.356L319.648 123.944ZM326.386 123.944C326.386 123.944 327.19 125.144 328.87 125.144C330.586 125.144 331.834 123.896 331.834 122.396C331.834 120.872 330.598 119.648 328.882 119.648C328.138 119.648 327.61 119.96 327.61 119.96H327.586C327.586 119.96 327.622 119.78 327.658 119.48L327.874 117.572C327.898 117.392 327.97 117.308 328.138 117.308H330.274C330.442 117.308 330.538 117.392 330.538 117.572V118.136H331.318V117.296C331.318 116.78 331.102 116.564 330.598 116.564H327.826C327.31 116.564 327.142 116.78 327.094 117.296L326.734 120.692L327.166 120.872C327.166 120.872 327.838 120.404 328.786 120.404C329.998 120.404 330.97 121.22 330.97 122.384C330.97 123.5 330.07 124.352 328.87 124.352C327.55 124.352 326.914 123.356 326.914 123.356L326.386 123.944ZM333.125 123.944C333.125 123.944 333.929 125.144 335.609 125.144C337.325 125.144 338.573 123.896 338.573 122.396C338.573 120.872 337.337 119.648 335.621 119.648C334.877 119.648 334.349 119.96 334.349 119.96H334.325C334.325 119.96 334.361 119.78 334.397 119.48L334.613 117.572C334.637 117.392 334.709 117.308 334.877 117.308H337.013C337.181 117.308 337.277 117.392 337.277 117.572V118.136H338.057V117.296C338.057 116.78 337.841 116.564 337.337 116.564H334.565C334.049 116.564 333.881 116.78 333.833 117.296L333.473 120.692L333.905 120.872C333.905 120.872 334.577 120.404 335.525 120.404C336.737 120.404 337.709 121.22 337.709 122.384C337.709 123.5 336.809 124.352 335.609 124.352C334.289 124.352 333.653 123.356 333.653 123.356L333.125 123.944ZM340.197 121.964H343.605V121.22H340.197V121.964ZM344.893 125H349.465V124.256H347.617V116.564H346.825L344.917 118.46L345.445 119L346.345 118.1C346.681 117.776 346.765 117.596 346.765 117.596H346.789C346.789 117.596 346.777 117.824 346.777 118.064V124.256H344.893V125ZM350.336 124.172C350.336 124.76 350.516 125 351.092 125H355.316C355.832 125 356.048 124.784 356.048 124.268V123.428H355.268V123.992C355.268 124.172 355.172 124.256 355.004 124.256H351.476C351.296 124.256 351.2 124.184 351.2 124.016C351.2 121.676 355.664 121.748 355.664 118.784C355.664 117.476 354.704 116.42 353.096 116.42C352.232 116.42 350.78 116.828 350.78 117.896V118.52H351.572V118.124C351.572 117.644 352.232 117.212 353.072 117.212C354.14 117.212 354.8 117.896 354.8 118.796C354.8 121.292 350.336 121.04 350.336 124.172ZM356.917 123.968C356.917 123.968 357.949 125.144 359.617 125.144C361.213 125.144 362.401 123.944 362.401 122.516C362.401 120.704 360.853 120.092 359.797 120.032L362.281 117.116V116.564H357.997C357.481 116.564 357.289 116.78 357.289 117.296V118.136H358.069V117.572C358.069 117.392 358.165 117.308 358.333 117.308H360.529C360.973 117.308 361.213 117.272 361.213 117.272V117.296C361.213 117.296 360.985 117.488 360.781 117.764L358.705 120.26L358.897 120.752H359.485C360.553 120.752 361.537 121.388 361.537 122.528C361.537 123.608 360.625 124.352 359.629 124.352C358.285 124.352 357.421 123.344 357.421 123.344L356.917 123.968ZM363.833 121.964H367.241V121.22H363.833V121.964ZM368.305 122.672H372.469V125H373.309V122.672H374.653V121.928H373.309V116.564H372.409L368.305 122.12V122.672ZM372.481 121.928H369.973C369.613 121.928 369.277 121.964 369.277 121.964V121.94C369.277 121.94 369.493 121.712 369.721 121.412L372.061 118.316C372.289 118.016 372.493 117.668 372.493 117.668H372.517C372.517 117.668 372.481 118.124 372.481 118.484V121.928ZM375.511 123.944C375.511 123.944 376.315 125.144 377.995 125.144C379.711 125.144 380.959 123.896 380.959 122.396C380.959 120.872 379.723 119.648 378.007 119.648C377.263 119.648 376.735 119.96 376.735 119.96H376.711C376.711 119.96 376.747 119.78 376.783 119.48L376.999 117.572C377.023 117.392 377.095 117.308 377.263 117.308H379.399C379.567 117.308 379.663 117.392 379.663 117.572V118.136H380.443V117.296C380.443 116.78 380.227 116.564 379.723 116.564H376.951C376.435 116.564 376.267 116.78 376.219 117.296L375.859 120.692L376.291 120.872C376.291 120.872 376.963 120.404 377.911 120.404C379.123 120.404 380.095 121.22 380.095 122.384C380.095 123.5 379.195 124.352 377.995 124.352C376.675 124.352 376.039 123.356 376.039 123.356L375.511 123.944ZM385.259 125.144C386.735 125.144 387.911 124.076 387.911 122.324C387.911 120.752 386.819 119.648 385.283 119.648C384.407 119.648 383.531 120.008 383.135 120.668H383.111C383.267 118.964 384.167 117.2 385.931 117.2C386.627 117.2 387.155 117.5 387.155 117.5L387.467 116.768C387.467 116.768 386.843 116.42 385.919 116.42C383.315 116.42 382.211 119.144 382.211 121.292C382.211 123.5 383.423 125.144 385.259 125.144ZM383.111 121.832C383.111 121.148 384.023 120.392 385.151 120.392C386.303 120.392 387.059 121.16 387.059 122.336C387.059 123.5 386.387 124.364 385.247 124.364C383.987 124.364 383.111 122.948 383.111 121.832ZM389.253 125H390.189L394.365 117.14V116.564H389.385C388.869 116.564 388.665 116.78 388.665 117.296V118.136H389.457V117.572C389.457 117.392 389.553 117.308 389.721 117.308H392.757C393.177 117.308 393.393 117.284 393.393 117.284V117.308C393.393 117.308 393.165 117.632 392.925 118.088L389.253 125Z" fill="black"/>
<path d="M49.312 105.968C49.312 105.968 50.344 107.144 52.012 107.144C53.608 107.144 54.796 105.944 54.796 104.516C54.796 102.704 53.248 102.092 52.192 102.032L54.676 99.116V98.564H50.392C49.876 98.564 49.684 98.78 49.684 99.296V100.136H50.464V99.572C50.464 99.392 50.56 99.308 50.728 99.308H52.924C53.368 99.308 53.608 99.272 53.608 99.272V99.296C53.608 99.296 53.38 99.488 53.176 99.764L51.1 102.26L51.292 102.752H51.88C52.948 102.752 53.932 103.388 53.932 104.528C53.932 105.608 53.02 106.352 52.024 106.352C50.68 106.352 49.816 105.344 49.816 105.344L49.312 105.968ZM55.8438 106.172C55.8438 106.76 56.0238 107 56.5998 107H60.8238C61.3398 107 61.5558 106.784 61.5558 106.268V105.428H60.7758V105.992C60.7758 106.172 60.6798 106.256 60.5118 106.256H56.9838C56.8038 106.256 56.7078 106.184 56.7078 106.016C56.7078 103.676 61.1718 103.748 61.1718 100.784C61.1718 99.476 60.2118 98.42 58.6038 98.42C57.7398 98.42 56.2878 98.828 56.2878 99.896V100.52H57.0798V100.124C57.0798 99.644 57.7398 99.212 58.5798 99.212C59.6478 99.212 60.3078 99.896 60.3078 100.796C60.3078 103.292 55.8438 103.04 55.8438 106.172ZM68.5696 107H69.4696L72.2416 99.572C72.3256 99.344 72.4456 99.308 72.6736 99.308H72.7816V98.564H72.4216C71.8216 98.564 71.6416 98.672 71.4256 99.26L69.3496 104.936C69.1936 105.368 69.0256 106.028 69.0256 106.028H69.0016C69.0016 106.028 68.8336 105.368 68.6776 104.936L66.6016 99.26C66.3976 98.684 66.2176 98.564 65.6176 98.564H65.2456V99.308H65.3656C65.5936 99.308 65.7136 99.344 65.7976 99.572L68.5696 107ZM72.8589 105.356C72.8589 106.556 73.9029 107.144 74.9109 107.144C76.4229 107.144 76.9269 105.836 76.9149 105.836H76.9389C76.9389 105.836 76.9269 106.016 76.9269 106.28C76.9269 106.772 77.1309 107 77.6469 107H78.4749V106.292H77.9709C77.8029 106.292 77.7069 106.208 77.7069 106.028V103.136C77.7069 101.84 77.2509 100.82 75.3429 100.82C74.8149 100.82 73.3749 101 73.3749 101.84V102.416H74.1549V102.032C74.1549 101.588 75.0309 101.504 75.3309 101.504C76.4349 101.504 76.8909 101.948 76.8909 103.208V103.28H76.5549C75.5109 103.28 72.8589 103.352 72.8589 105.356ZM73.6989 105.308C73.6989 103.952 75.5949 103.928 76.5429 103.928H76.8909V104.204C76.8909 105.248 76.1949 106.448 75.0429 106.448C74.1429 106.448 73.6989 105.872 73.6989 105.308ZM79.0785 106.088C79.0785 106.088 79.8225 107.144 81.3945 107.144C82.5945 107.144 83.5065 106.46 83.5065 105.452C83.5065 103.448 80.1225 103.76 80.1225 102.404C80.1225 101.816 80.6265 101.528 81.4665 101.528C81.8625 101.528 82.5105 101.696 82.5105 102.14V102.428H83.2785V101.912C83.2785 101.06 82.0545 100.82 81.4425 100.82C80.2305 100.82 79.2945 101.36 79.2945 102.452C79.2945 104.396 82.6785 104.156 82.6785 105.476C82.6785 106.112 82.0785 106.436 81.4065 106.436C80.2185 106.436 79.5465 105.524 79.5465 105.524L79.0785 106.088ZM84.3636 106.088C84.3636 106.088 85.1076 107.144 86.6796 107.144C87.8796 107.144 88.7916 106.46 88.7916 105.452C88.7916 103.448 85.4076 103.76 85.4076 102.404C85.4076 101.816 85.9116 101.528 86.7516 101.528C87.1476 101.528 87.7956 101.696 87.7956 102.14V102.428H88.5636V101.912C88.5636 101.06 87.3396 100.82 86.7276 100.82C85.5156 100.82 84.5796 101.36 84.5796 102.452C84.5796 104.396 87.9636 104.156 87.9636 105.476C87.9636 106.112 87.3636 106.436 86.6916 106.436C85.5036 106.436 84.8316 105.524 84.8316 105.524L84.3636 106.088ZM89.7808 105.356C89.7808 106.556 90.8248 107.144 91.8328 107.144C93.3448 107.144 93.8488 105.836 93.8368 105.836H93.8608C93.8608 105.836 93.8488 106.016 93.8488 106.28C93.8488 106.772 94.0528 107 94.5688 107H95.3968V106.292H94.8928C94.7248 106.292 94.6288 106.208 94.6288 106.028V103.136C94.6288 101.84 94.1728 100.82 92.2648 100.82C91.7368 100.82 90.2968 101 90.2968 101.84V102.416H91.0768V102.032C91.0768 101.588 91.9528 101.504 92.2528 101.504C93.3568 101.504 93.8128 101.948 93.8128 103.208V103.28H93.4768C92.4328 103.28 89.7808 103.352 89.7808 105.356ZM90.6208 105.308C90.6208 103.952 92.5168 103.928 93.4648 103.928H93.8128V104.204C93.8128 105.248 93.1168 106.448 91.9648 106.448C91.0648 106.448 90.6208 105.872 90.6208 105.308ZM96.6963 107H97.5123V104.456C97.5123 104.072 97.5603 103.664 97.6803 103.28C97.9443 102.392 98.5803 101.72 99.4323 101.72C99.5883 101.72 99.7323 101.744 99.7323 101.744V100.94C99.7323 100.94 99.5763 100.904 99.4083 100.904C98.4603 100.904 97.7883 101.6 97.5003 102.512H97.4763C97.4763 102.512 97.5003 102.308 97.5003 102.056V101.648C97.5003 101.168 97.2723 100.964 96.7683 100.964H95.9283V101.672H96.4323C96.6003 101.672 96.6963 101.768 96.6963 101.936V107ZM103.714 105.944C103.714 105.944 104.662 107.144 106.39 107.144C107.974 107.144 108.946 106.076 108.946 104.816C108.946 102.032 104.782 102.512 104.782 100.556C104.782 99.836 105.418 99.2 106.51 99.2C107.29 99.2 107.986 99.572 107.986 100.076V100.472H108.778V99.872C108.778 98.768 107.314 98.42 106.498 98.42C104.938 98.42 103.918 99.404 103.918 100.58C103.918 103.196 108.082 102.776 108.082 104.864C108.082 105.764 107.338 106.364 106.414 106.364C105.082 106.364 104.23 105.332 104.23 105.332L103.714 105.944ZM110.596 104.804C110.596 106.82 112 107.048 112.696 107.048C112.9 107.048 113.044 107.024 113.044 107.024V106.292C113.044 106.292 112.936 106.316 112.768 106.316C112.312 106.316 111.412 106.136 111.412 104.72V101.648H112.924V100.964H111.412V99.296H110.608V100.964H109.804V101.648H110.596V104.804ZM114.328 107H115.252V106.04H114.328V107ZM49.456 116.716C49.456 119.176 51.196 121.144 53.668 121.144C55.756 121.144 56.92 119.776 56.92 119.776L56.44 119.164C56.44 119.164 55.42 120.352 53.68 120.352C51.76 120.352 50.332 118.732 50.332 116.716C50.332 114.676 51.772 113.212 53.644 113.212C54.616 113.212 55.984 113.644 55.984 114.436V114.904H56.776V114.208C56.776 112.936 54.82 112.42 53.62 112.42C51.244 112.42 49.456 114.28 49.456 116.716ZM57.812 119.356C57.812 120.556 58.856 121.144 59.864 121.144C61.376 121.144 61.88 119.836 61.868 119.836H61.892C61.892 119.836 61.88 120.016 61.88 120.28C61.88 120.772 62.084 121 62.6 121H63.428V120.292H62.924C62.756 120.292 62.66 120.208 62.66 120.028V117.136C62.66 115.84 62.204 114.82 60.296 114.82C59.768 114.82 58.328 115 58.328 115.84V116.416H59.108V116.032C59.108 115.588 59.984 115.504 60.284 115.504C61.388 115.504 61.844 115.948 61.844 117.208V117.28H61.508C60.464 117.28 57.812 117.352 57.812 119.356ZM58.652 119.308C58.652 117.952 60.548 117.928 61.496 117.928H61.844V118.204C61.844 119.248 61.148 120.448 59.996 120.448C59.096 120.448 58.652 119.872 58.652 119.308ZM64.7276 121H65.5436V118.144C65.5436 117.868 65.5676 117.592 65.6396 117.34C65.8916 116.416 66.6236 115.564 67.6076 115.564C68.7476 115.564 68.8796 116.452 68.8796 117.364V121H69.6956V118.144C69.6956 117.82 69.7196 117.532 69.8036 117.268C70.0436 116.38 70.7996 115.564 71.7116 115.564C72.8156 115.564 73.0196 116.38 73.0196 117.364V120.268C73.0196 120.784 73.2356 121 73.7516 121H74.6036V120.292H74.0996C73.9316 120.292 73.8356 120.208 73.8356 120.028V117.16C73.8356 115.672 73.2956 114.82 71.8316 114.82C70.8116 114.82 69.9356 115.516 69.6116 116.332H69.5876C69.4076 115.336 68.8316 114.82 67.7156 114.82C66.7796 114.82 65.8316 115.528 65.5316 116.344H65.5076C65.5076 116.344 65.5316 116.152 65.5316 115.912V115.636C65.5316 115.18 65.3036 114.964 64.7996 114.964H63.9596V115.672H64.4636C64.6316 115.672 64.7276 115.768 64.7276 115.936V121ZM75.8596 121H76.6516V120.472C76.6516 120.184 76.6276 119.98 76.6276 119.98H76.6516C76.6516 119.98 77.1916 121.144 78.6316 121.144C80.2156 121.144 81.3556 119.896 81.3556 117.988C81.3556 116.116 80.3476 114.82 78.7276 114.82C77.1796 114.82 76.6756 115.972 76.6756 115.972H76.6516C76.6516 115.972 76.6756 115.756 76.6756 115.48V113.296C76.6756 112.78 76.4596 112.564 75.9436 112.564H75.0916V113.272H75.5956C75.7636 113.272 75.8596 113.368 75.8596 113.536V121ZM76.6516 118C76.6516 116.284 77.5996 115.564 78.6076 115.564C79.7236 115.564 80.5156 116.512 80.5156 117.988C80.5156 119.524 79.6396 120.424 78.5716 120.424C77.2756 120.424 76.6516 119.212 76.6516 118ZM82.9034 121H83.7194V118.456C83.7194 118.072 83.7674 117.664 83.8874 117.28C84.1514 116.392 84.7874 115.72 85.6394 115.72C85.7954 115.72 85.9394 115.744 85.9394 115.744V114.94C85.9394 114.94 85.7834 114.904 85.6154 114.904C84.6674 114.904 83.9954 115.6 83.7074 116.512H83.6834C83.6834 116.512 83.7074 116.308 83.7074 116.056V115.648C83.7074 115.168 83.4794 114.964 82.9754 114.964H82.1354V115.672H82.6394C82.8074 115.672 82.9034 115.768 82.9034 115.936V121ZM87.287 113.596H88.079V112.564H87.287V113.596ZM87.311 120.268C87.311 120.784 87.527 121 88.043 121H88.895V120.292H88.391C88.223 120.292 88.127 120.208 88.127 120.028V115.696C88.127 115.18 87.911 114.964 87.395 114.964H86.543V115.672H87.047C87.215 115.672 87.311 115.768 87.311 115.936V120.268ZM89.7228 117.976C89.7228 119.848 90.7308 121.144 92.3508 121.144C93.9348 121.144 94.4268 119.944 94.4268 119.944H94.4508C94.4508 119.944 94.4268 120.1 94.4268 120.328C94.4268 120.772 94.6428 121 95.1468 121H95.9868V120.292H95.4828C95.3148 120.292 95.2188 120.208 95.2188 120.028V113.296C95.2188 112.78 95.0028 112.564 94.4868 112.564H93.6348V113.272H94.1388C94.3068 113.272 94.4028 113.368 94.4028 113.536V115.492C94.4028 115.744 94.4268 115.948 94.4268 115.948H94.4028C94.4028 115.948 93.8988 114.82 92.4348 114.82C90.8508 114.82 89.7228 116.068 89.7228 117.976ZM92.4708 120.412C91.3428 120.412 90.5628 119.464 90.5628 117.976C90.5628 116.452 91.4388 115.552 92.5068 115.552C93.8028 115.552 94.4268 116.752 94.4268 117.976C94.4268 119.692 93.4788 120.412 92.4708 120.412ZM96.7774 117.868C96.7774 119.68 97.8454 120.964 99.4654 120.964C100.401 120.964 101.001 120.58 101.361 119.92H101.385C101.385 119.92 101.373 120.124 101.373 120.352V120.88C101.373 122.224 100.437 122.776 99.2614 122.776C98.3734 122.776 97.6294 122.356 97.6294 122.356L97.3174 123.04C97.9054 123.34 98.6014 123.52 99.2854 123.52C100.773 123.52 102.189 122.776 102.189 120.856V115.936C102.189 115.756 102.285 115.672 102.453 115.672H102.945V114.964H102.105C101.613 114.964 101.421 115.192 101.421 115.624C101.421 115.744 101.421 115.852 101.421 115.852H101.397C101.397 115.852 101.013 114.82 99.3934 114.82C97.7734 114.82 96.7774 116.056 96.7774 117.868ZM99.5854 120.232C98.3974 120.232 97.6174 119.296 97.6174 117.856C97.6174 116.416 98.3014 115.564 99.4774 115.564C100.545 115.564 101.385 116.104 101.385 117.868C101.385 119.644 100.545 120.232 99.5854 120.232ZM103.703 117.988C103.703 119.848 105.071 121.144 106.859 121.144C108.227 121.144 109.103 120.28 109.103 120.28L108.707 119.668C108.707 119.668 107.999 120.412 106.895 120.412C105.647 120.412 104.579 119.536 104.555 118.012H109.187C109.187 118.012 109.211 117.748 109.211 117.604C109.211 116.104 108.347 114.82 106.679 114.82C105.059 114.82 103.703 116.008 103.703 117.988ZM104.591 117.364C104.795 116.152 105.671 115.504 106.667 115.504C107.555 115.504 108.323 116.116 108.371 117.364H104.591ZM113.33 121H114.134C114.65 121 114.83 120.784 114.866 120.268L115.262 115.144C115.298 114.688 115.298 113.944 115.298 113.944H115.322C115.322 113.944 115.574 114.724 115.766 115.144L117.758 119.428H118.514L120.518 115.144C120.722 114.712 120.95 113.968 120.95 113.968H120.974C120.974 113.968 120.974 114.688 121.01 115.144L121.406 120.268C121.442 120.784 121.622 121 122.138 121H122.954V120.256H122.498C122.33 120.256 122.246 120.172 122.234 119.992L121.646 112.564H120.794L118.562 117.472C118.37 117.904 118.154 118.468 118.154 118.468H118.13C118.13 118.468 117.914 117.904 117.71 117.472L115.478 112.564H114.626L114.038 119.992C114.026 120.172 113.942 120.256 113.774 120.256H113.33V121ZM123.347 121H123.743C124.343 121 124.511 120.88 124.727 120.304L125.471 118.312H128.819L129.551 120.304C129.767 120.88 129.947 121 130.547 121H130.931V120.256H130.787C130.559 120.256 130.439 120.22 130.355 119.992L127.595 112.564H126.695L123.935 119.992C123.851 120.22 123.719 120.256 123.503 120.256H123.347V121ZM125.699 117.58L126.803 114.568C126.947 114.172 127.127 113.476 127.127 113.476H127.151C127.151 113.476 127.331 114.172 127.475 114.568L128.591 117.58H125.699ZM137.971 121.144C140.167 121.144 140.887 119.224 140.887 116.776C140.887 114.352 140.167 112.42 137.971 112.42C135.775 112.42 135.067 114.352 135.067 116.776C135.067 119.224 135.775 121.144 137.971 121.144ZM137.971 120.364C136.375 120.364 135.919 118.792 135.919 116.776C135.919 114.772 136.375 113.2 137.971 113.2C139.567 113.2 140.023 114.772 140.023 116.776C140.023 118.792 139.567 120.364 137.971 120.364ZM141.953 120.172C141.953 120.76 142.133 121 142.709 121H146.933C147.449 121 147.665 120.784 147.665 120.268V119.428H146.885V119.992C146.885 120.172 146.789 120.256 146.621 120.256H143.093C142.913 120.256 142.817 120.184 142.817 120.016C142.817 117.676 147.281 117.748 147.281 114.784C147.281 113.476 146.321 112.42 144.713 112.42C143.849 112.42 142.397 112.828 142.397 113.896V114.52H143.189V114.124C143.189 113.644 143.849 113.212 144.689 113.212C145.757 113.212 146.417 113.896 146.417 114.796C146.417 117.292 141.953 117.04 141.953 120.172ZM148.991 121H153.563V120.256H151.715V112.564H150.923L149.015 114.46L149.543 115L150.443 114.1C150.779 113.776 150.863 113.596 150.863 113.596H150.887C150.887 113.596 150.875 113.824 150.875 114.064V120.256H148.991V121ZM154.698 121H159.27V120.256H157.422V112.564H156.63L154.722 114.46L155.25 115L156.15 114.1C156.486 113.776 156.57 113.596 156.57 113.596H156.594C156.594 113.596 156.582 113.824 156.582 114.064V120.256H154.698V121ZM159.606 118.672H163.77V121H164.61V118.672H165.954V117.928H164.61V112.564H163.71L159.606 118.12V118.672ZM163.782 117.928H161.274C160.914 117.928 160.578 117.964 160.578 117.964V117.94C160.578 117.94 160.794 117.712 161.022 117.412L163.362 114.316C163.59 114.016 163.794 113.668 163.794 113.668H163.818C163.818 113.668 163.782 114.124 163.782 114.484V117.928Z" fill="black"/>
</svg>
