<svg width="699" height="400" viewBox="0 0 699 400" fill="none" xmlns="http://www.w3.org/2000/svg">
<rect width="699" height="400" fill="#E5E5E5"/>
<rect width="699" height="400" fill="white"/>
<path d="M105.644 127.33C105.644 143.94 116.754 150.32 127.424 150.32C138.094 150.32 149.204 144.05 149.204 127.33V78.38C149.204 73.65 147.224 71.67 142.494 71.67H119.944V78.49H139.084C140.624 78.49 141.504 79.26 141.504 80.91V127.11C141.504 138.99 134.354 143.06 127.534 143.06C120.604 143.06 113.344 139.1 113.344 126.89V124.25H105.644V127.33ZM162.941 121.06C162.941 137.78 176.031 150.32 192.201 150.32C208.261 150.32 221.351 137.78 221.351 121.06C221.351 104.67 208.261 92.35 192.091 92.35C176.031 92.35 162.941 104.67 162.941 121.06ZM170.641 121.06C170.641 108.52 180.321 99.17 192.201 99.17C203.971 99.17 213.651 108.52 213.651 121.06C213.651 133.93 203.971 143.61 192.201 143.61C180.321 143.61 170.641 133.93 170.641 121.06ZM234.06 149H241.54V122.49C241.54 119.85 241.76 117.32 242.42 115.12C244.95 105.88 253.09 99.39 262.44 99.39C273.22 99.39 274.54 107.09 274.54 115.78V142.29C274.54 147.02 276.52 149 281.25 149H289.06V142.51H284.44C282.9 142.51 282.02 141.74 282.02 140.09V113.8C282.02 100.16 277.18 92.35 263.43 92.35C251 92.35 243.63 100.82 241.54 106.1H241.32C241.32 106.1 241.54 104.12 241.54 101.59V78.16C241.54 73.65 239.56 71.67 234.83 71.67H227.02V78.16H231.64C233.18 78.16 234.06 79.04 234.06 80.58V149ZM300.992 149H308.472V122.49C308.472 119.85 308.692 117.32 309.352 115.01C311.882 105.88 320.022 99.39 329.482 99.39C340.152 99.39 341.472 107.09 341.472 115.78V142.29C341.472 147.02 343.452 149 348.182 149H355.992V142.51H351.372C349.832 142.51 348.952 141.74 348.952 140.09V113.8C348.952 100.16 344.112 92.35 330.362 92.35C317.382 92.35 310.342 101.26 308.362 106.32H308.142C308.142 106.32 308.362 104.56 308.362 102.36V99.83C308.362 95.65 306.272 93.67 301.652 93.67H293.952V100.16H298.572C300.112 100.16 300.992 101.04 300.992 102.58V149ZM400.086 142.29C400.086 147.02 402.066 149 406.796 149H423.956C447.276 149 462.786 134.92 462.786 110.28C462.786 85.86 447.276 71.67 423.956 71.67H392.936V78.49H400.086V142.29ZM407.786 139.76V78.49H423.186C442.106 78.49 454.756 89.71 454.756 110.28C454.756 130.96 442.216 142.18 423.186 142.18H410.206C408.666 142.18 407.786 141.41 407.786 139.76ZM471.886 121.06C471.886 137.78 484.976 150.32 501.146 150.32C517.206 150.32 530.296 137.78 530.296 121.06C530.296 104.67 517.206 92.35 501.036 92.35C484.976 92.35 471.886 104.67 471.886 121.06ZM479.586 121.06C479.586 108.52 489.266 99.17 501.146 99.17C512.916 99.17 522.596 108.52 522.596 121.06C522.596 133.93 512.916 143.61 501.146 143.61C489.266 143.61 479.586 133.93 479.586 121.06ZM539.132 121.39C539.132 138.44 551.672 150.32 568.062 150.32C580.602 150.32 588.632 142.4 588.632 142.4L585.002 136.79C585.002 136.79 578.512 143.61 568.392 143.61C556.952 143.61 547.162 135.58 546.942 121.61H589.402C589.402 121.61 589.622 119.19 589.622 117.87C589.622 104.12 581.702 92.35 566.412 92.35C551.562 92.35 539.132 103.24 539.132 121.39ZM547.272 115.67C549.142 104.56 557.172 98.62 566.302 98.62C574.442 98.62 581.482 104.23 581.922 115.67H547.272Z" fill="black"/>
<path d="M269.86 213H272.54C274.26 213 274.86 212.28 274.98 210.56L276.3 193.48C276.42 191.96 276.42 189.48 276.42 189.48H276.5C276.5 189.48 277.34 192.08 277.98 193.48L284.62 207.76H287.14L293.82 193.48C294.5 192.04 295.26 189.56 295.26 189.56H295.34C295.34 189.56 295.34 191.96 295.46 193.48L296.78 210.56C296.9 212.28 297.5 213 299.22 213H301.94V210.52H300.42C299.86 210.52 299.58 210.24 299.54 209.64L297.58 184.88H294.74L287.3 201.24C286.66 202.68 285.94 204.56 285.94 204.56H285.86C285.86 204.56 285.14 202.68 284.46 201.24L277.02 184.88H274.18L272.22 209.64C272.18 210.24 271.9 210.52 271.34 210.52H269.86V213ZM304.37 207.52C304.37 211.52 307.85 213.48 311.21 213.48C316.25 213.48 317.93 209.12 317.89 209.12H317.97C317.97 209.12 317.93 209.72 317.93 210.6C317.93 212.24 318.61 213 320.33 213H323.09V210.64H321.41C320.85 210.64 320.53 210.36 320.53 209.76V200.12C320.53 195.8 319.01 192.4 312.65 192.4C310.89 192.4 306.09 193 306.09 195.8V197.72H308.69V196.44C308.69 194.96 311.61 194.68 312.61 194.68C316.29 194.68 317.81 196.16 317.81 200.36V200.6H316.69C313.21 200.6 304.37 200.84 304.37 207.52ZM307.17 207.36C307.17 202.84 313.49 202.76 316.65 202.76H317.81V203.68C317.81 207.16 315.49 211.16 311.65 211.16C308.65 211.16 307.17 209.24 307.17 207.36ZM327.421 213H330.141V203.36C330.141 202.4 330.221 201.48 330.461 200.64C331.381 197.32 334.341 194.96 337.781 194.96C341.661 194.96 342.141 197.76 342.141 200.92V210.56C342.141 212.28 342.861 213 344.581 213H347.421V210.64H345.741C345.181 210.64 344.861 210.36 344.861 209.76V200.2C344.861 195.24 343.101 192.4 338.101 192.4C333.381 192.4 330.821 195.64 330.101 197.48H330.021C330.021 197.48 330.101 196.84 330.101 196.04V195.12C330.101 193.6 329.341 192.88 327.661 192.88H324.861V195.24H326.541C327.101 195.24 327.421 195.56 327.421 196.12V213ZM349.877 207.52C349.877 211.52 353.357 213.48 356.717 213.48C361.757 213.48 363.437 209.12 363.397 209.12H363.477C363.477 209.12 363.437 209.72 363.437 210.6C363.437 212.24 364.117 213 365.837 213H368.597V210.64H366.917C366.357 210.64 366.037 210.36 366.037 209.76V200.12C366.037 195.8 364.517 192.4 358.157 192.4C356.397 192.4 351.597 193 351.597 195.8V197.72H354.197V196.44C354.197 194.96 357.117 194.68 358.117 194.68C361.797 194.68 363.317 196.16 363.317 200.36V200.6H362.197C358.717 200.6 349.877 200.84 349.877 207.52ZM352.677 207.36C352.677 202.84 358.997 202.76 362.157 202.76H363.317V203.68C363.317 207.16 360.997 211.16 357.157 211.16C354.157 211.16 352.677 209.24 352.677 207.36ZM371.129 202.56C371.129 208.6 374.689 212.88 380.089 212.88C383.209 212.88 385.209 211.6 386.409 209.4H386.489C386.489 209.4 386.449 210.08 386.449 210.84V212.6C386.449 217.08 383.329 218.92 379.409 218.92C376.449 218.92 373.969 217.52 373.969 217.52L372.929 219.8C374.889 220.8 377.209 221.4 379.489 221.4C384.449 221.4 389.169 218.92 389.169 212.52V196.12C389.169 195.52 389.489 195.24 390.049 195.24H391.689V192.88H388.889C387.249 192.88 386.609 193.64 386.609 195.08C386.609 195.48 386.609 195.84 386.609 195.84H386.529C386.529 195.84 385.249 192.4 379.849 192.4C374.449 192.4 371.129 196.52 371.129 202.56ZM380.489 210.44C376.529 210.44 373.929 207.32 373.929 202.52C373.929 197.72 376.209 194.88 380.129 194.88C383.689 194.88 386.489 196.68 386.489 202.56C386.489 208.48 383.689 210.44 380.489 210.44ZM394.213 202.96C394.213 209.16 398.773 213.48 404.733 213.48C409.293 213.48 412.213 210.6 412.213 210.6L410.893 208.56C410.893 208.56 408.533 211.04 404.853 211.04C400.693 211.04 397.133 208.12 397.053 203.04H412.493C412.493 203.04 412.573 202.16 412.573 201.68C412.573 196.68 409.693 192.4 404.133 192.4C398.733 192.4 394.213 196.36 394.213 202.96ZM397.173 200.88C397.853 196.84 400.773 194.68 404.093 194.68C407.053 194.68 409.613 196.72 409.773 200.88H397.173ZM418.007 213H420.727V204.52C420.727 203.24 420.887 201.88 421.287 200.6C422.167 197.64 424.287 195.4 427.127 195.4C427.647 195.4 428.127 195.48 428.127 195.48V192.8C428.127 192.8 427.607 192.68 427.047 192.68C423.887 192.68 421.647 195 420.687 198.04H420.607C420.607 198.04 420.687 197.36 420.687 196.52V195.16C420.687 193.56 419.927 192.88 418.247 192.88H415.447V195.24H417.127C417.687 195.24 418.007 195.56 418.007 196.12V213ZM145.321 271.624C145.321 271.624 147.13 274.324 150.91 274.324C154.771 274.324 157.579 271.516 157.579 268.141C157.579 264.712 154.798 261.958 150.937 261.958C149.263 261.958 148.075 262.66 148.075 262.66H148.021C148.021 262.66 148.102 262.255 148.183 261.58L148.669 257.287C148.723 256.882 148.885 256.693 149.263 256.693H154.069C154.447 256.693 154.663 256.882 154.663 257.287V258.556H156.418V256.666C156.418 255.505 155.932 255.019 154.798 255.019H148.561C147.4 255.019 147.022 255.505 146.914 256.666L146.104 264.307L147.076 264.712C147.076 264.712 148.588 263.659 150.721 263.659C153.448 263.659 155.635 265.495 155.635 268.114C155.635 270.625 153.61 272.542 150.91 272.542C147.94 272.542 146.509 270.301 146.509 270.301L145.321 271.624ZM160.482 271.624C160.482 271.624 162.291 274.324 166.071 274.324C169.932 274.324 172.74 271.516 172.74 268.141C172.74 264.712 169.959 261.958 166.098 261.958C164.424 261.958 163.236 262.66 163.236 262.66H163.182C163.182 262.66 163.263 262.255 163.344 261.58L163.83 257.287C163.884 256.882 164.046 256.693 164.424 256.693H169.23C169.608 256.693 169.824 256.882 169.824 257.287V258.556H171.579V256.666C171.579 255.505 171.093 255.019 169.959 255.019H163.722C162.561 255.019 162.183 255.505 162.075 256.666L161.265 264.307L162.237 264.712C162.237 264.712 163.749 263.659 165.882 263.659C168.609 263.659 170.796 265.495 170.796 268.114C170.796 270.625 168.771 272.542 166.071 272.542C163.101 272.542 161.67 270.301 161.67 270.301L160.482 271.624ZM175.644 271.624C175.644 271.624 177.453 274.324 181.233 274.324C185.094 274.324 187.902 271.516 187.902 268.141C187.902 264.712 185.121 261.958 181.26 261.958C179.586 261.958 178.398 262.66 178.398 262.66H178.344C178.344 262.66 178.425 262.255 178.506 261.58L178.992 257.287C179.046 256.882 179.208 256.693 179.586 256.693H184.392C184.77 256.693 184.986 256.882 184.986 257.287V258.556H186.741V256.666C186.741 255.505 186.255 255.019 185.121 255.019H178.884C177.723 255.019 177.345 255.505 177.237 256.666L176.427 264.307L177.399 264.712C177.399 264.712 178.911 263.659 181.044 263.659C183.771 263.659 185.958 265.495 185.958 268.114C185.958 270.625 183.933 272.542 181.233 272.542C178.263 272.542 176.832 270.301 176.832 270.301L175.644 271.624ZM191.556 267.169H199.224V265.495H191.556V267.169ZM202.123 274H212.41V272.326H208.252V255.019H206.47L202.177 259.285L203.365 260.5L205.39 258.475C206.146 257.746 206.335 257.341 206.335 257.341H206.389C206.389 257.341 206.362 257.854 206.362 258.394V272.326H202.123V274ZM214.369 272.137C214.369 273.46 214.774 274 216.07 274H225.574C226.735 274 227.221 273.514 227.221 272.353V270.463H225.466V271.732C225.466 272.137 225.25 272.326 224.872 272.326H216.934C216.529 272.326 216.313 272.164 216.313 271.786C216.313 266.521 226.357 266.683 226.357 260.014C226.357 257.071 224.197 254.695 220.579 254.695C218.635 254.695 215.368 255.613 215.368 258.016V259.42H217.15V258.529C217.15 257.449 218.635 256.477 220.525 256.477C222.928 256.477 224.413 258.016 224.413 260.041C224.413 265.657 214.369 265.09 214.369 272.137ZM229.178 271.678C229.178 271.678 231.5 274.324 235.253 274.324C238.844 274.324 241.517 271.624 241.517 268.411C241.517 264.334 238.034 262.957 235.658 262.822L241.247 256.261V255.019H231.608C230.447 255.019 230.015 255.505 230.015 256.666V258.556H231.77V257.287C231.77 256.882 231.986 256.693 232.364 256.693H237.305C238.304 256.693 238.844 256.612 238.844 256.612V256.666C238.844 256.666 238.331 257.098 237.872 257.719L233.201 263.335L233.633 264.442H234.956C237.359 264.442 239.573 265.873 239.573 268.438C239.573 270.868 237.521 272.542 235.28 272.542C232.256 272.542 230.312 270.274 230.312 270.274L229.178 271.678ZM244.738 267.169H252.406V265.495H244.738V267.169ZM254.8 268.762H264.169V274H266.059V268.762H269.083V267.088H266.059V255.019H264.034L254.8 267.52V268.762ZM264.196 267.088H258.553C257.743 267.088 256.987 267.169 256.987 267.169V267.115C256.987 267.115 257.473 266.602 257.986 265.927L263.251 258.961C263.764 258.286 264.223 257.503 264.223 257.503H264.277C264.277 257.503 264.196 258.529 264.196 259.339V267.088ZM271.014 271.624C271.014 271.624 272.823 274.324 276.603 274.324C280.464 274.324 283.272 271.516 283.272 268.141C283.272 264.712 280.491 261.958 276.63 261.958C274.956 261.958 273.768 262.66 273.768 262.66H273.714C273.714 262.66 273.795 262.255 273.876 261.58L274.362 257.287C274.416 256.882 274.578 256.693 274.956 256.693H279.762C280.14 256.693 280.356 256.882 280.356 257.287V258.556H282.111V256.666C282.111 255.505 281.625 255.019 280.491 255.019H274.254C273.093 255.019 272.715 255.505 272.607 256.666L271.797 264.307L272.769 264.712C272.769 264.712 274.281 263.659 276.414 263.659C279.141 263.659 281.328 265.495 281.328 268.114C281.328 270.625 279.303 272.542 276.603 272.542C273.633 272.542 272.202 270.301 272.202 270.301L271.014 271.624ZM292.947 274.324C296.268 274.324 298.914 271.921 298.914 267.979C298.914 264.442 296.457 261.958 293.001 261.958C291.03 261.958 289.059 262.768 288.168 264.253H288.114C288.465 260.419 290.49 256.45 294.459 256.45C296.025 256.45 297.213 257.125 297.213 257.125L297.915 255.478C297.915 255.478 296.511 254.695 294.432 254.695C288.573 254.695 286.089 260.824 286.089 265.657C286.089 270.625 288.816 274.324 292.947 274.324ZM288.114 266.872C288.114 265.333 290.166 263.632 292.704 263.632C295.296 263.632 296.997 265.36 296.997 268.006C296.997 270.625 295.485 272.569 292.92 272.569C290.085 272.569 288.114 269.383 288.114 266.872ZM301.932 274H304.038L313.434 256.315V255.019H302.229C301.068 255.019 300.609 255.505 300.609 256.666V258.556H302.391V257.287C302.391 256.882 302.607 256.693 302.985 256.693H309.816C310.761 256.693 311.247 256.639 311.247 256.639V256.693C311.247 256.693 310.734 257.422 310.194 258.448L301.932 274ZM338.682 278.239H340.383V252.724H338.682V278.239ZM368.531 257.341H370.286V255.019H368.531V257.341ZM364.886 277.888V279.481C364.886 279.481 365.183 279.562 365.669 279.562C367.208 279.562 370.394 279.022 370.394 274.513V262.066C370.394 260.905 369.908 260.419 368.747 260.419H366.83V262.012H367.964C368.342 262.012 368.558 262.228 368.558 262.606V274.432C368.558 277.537 366.533 277.915 365.48 277.915C365.129 277.915 364.886 277.888 364.886 277.888ZM373.758 267.142C373.758 271.246 376.971 274.324 380.94 274.324C384.882 274.324 388.095 271.246 388.095 267.142C388.095 263.119 384.882 260.095 380.913 260.095C376.971 260.095 373.758 263.119 373.758 267.142ZM375.648 267.142C375.648 264.064 378.024 261.769 380.94 261.769C383.829 261.769 386.205 264.064 386.205 267.142C386.205 270.301 383.829 272.677 380.94 272.677C378.024 272.677 375.648 270.301 375.648 267.142ZM391.214 274H393.05V267.493C393.05 266.845 393.104 266.224 393.266 265.684C393.887 263.416 395.885 261.823 398.18 261.823C400.826 261.823 401.15 263.713 401.15 265.846V272.353C401.15 273.514 401.636 274 402.797 274H404.714V272.407H403.58C403.202 272.407 402.986 272.218 402.986 271.813V265.36C402.986 262.012 401.798 260.095 398.423 260.095C395.372 260.095 393.563 262.174 393.05 263.47H392.996C392.996 263.47 393.05 262.984 393.05 262.363V256.612C393.05 255.505 392.564 255.019 391.403 255.019H389.486V256.612H390.62C390.998 256.612 391.214 256.828 391.214 257.206V274ZM407.643 274H409.479V267.493C409.479 266.845 409.533 266.224 409.695 265.657C410.316 263.416 412.314 261.823 414.636 261.823C417.255 261.823 417.579 263.713 417.579 265.846V272.353C417.579 273.514 418.065 274 419.226 274H421.143V272.407H420.009C419.631 272.407 419.415 272.218 419.415 271.813V265.36C419.415 262.012 418.227 260.095 414.852 260.095C411.666 260.095 409.938 262.282 409.452 263.524H409.398C409.398 263.524 409.452 263.092 409.452 262.552V261.931C409.452 260.905 408.939 260.419 407.805 260.419H405.915V262.012H407.049C407.427 262.012 407.643 262.228 407.643 262.606V274ZM422.855 267.196C422.855 271.408 425.123 274.324 428.768 274.324C432.332 274.324 433.439 271.624 433.439 271.624H433.493C433.493 271.624 433.439 271.975 433.439 272.488C433.439 273.487 433.925 274 435.059 274H436.949V272.407H435.815C435.437 272.407 435.221 272.218 435.221 271.813V256.666C435.221 255.505 434.735 255.019 433.574 255.019H431.657V256.612H432.791C433.169 256.612 433.385 256.828 433.385 257.206V261.607C433.385 262.174 433.439 262.633 433.439 262.633H433.385C433.385 262.633 432.251 260.095 428.957 260.095C425.393 260.095 422.855 262.903 422.855 267.196ZM429.038 272.677C426.5 272.677 424.745 270.544 424.745 267.196C424.745 263.767 426.716 261.742 429.119 261.742C432.035 261.742 433.439 264.442 433.439 267.196C433.439 271.057 431.306 272.677 429.038 272.677ZM438.701 267.466C438.701 272.947 442.967 277.348 448.583 277.348V275.728C443.966 275.728 440.591 272.056 440.591 267.466C440.591 262.93 444.02 259.15 448.448 259.15C451.634 259.15 453.038 260.635 453.092 262.309H449.582C446.45 262.309 444.182 264.712 444.182 267.493C444.182 270.301 446.477 272.677 449.582 272.677H456.845V271.165H454.928V262.66C454.928 260.041 453.2 257.557 448.313 257.557C443.021 257.557 438.701 261.958 438.701 267.466ZM446.072 267.466C446.072 265.441 447.665 263.74 449.798 263.74H453.092V271.165H449.744C447.665 271.165 446.072 269.518 446.072 267.466ZM463.008 274H465.06L468.354 264.334C468.597 263.659 468.786 262.876 468.786 262.876H468.84C468.84 262.876 469.029 263.659 469.245 264.334L472.566 274H474.591L478.479 262.633C478.641 262.147 478.965 262.012 479.424 262.012H479.802V260.419H478.857C477.561 260.419 477.129 260.662 476.724 261.931L473.916 270.544C473.7 271.219 473.538 272.002 473.538 272.002H473.484C473.484 272.002 473.268 271.192 473.052 270.544L469.731 260.473H467.895L464.574 270.544C464.358 271.192 464.142 272.002 464.142 272.002H464.088C464.088 272.002 463.899 271.192 463.683 270.544L460.902 261.931C460.497 260.662 460.065 260.419 458.769 260.419H457.824V262.012H458.175C458.661 262.012 458.958 262.147 459.12 262.633L463.008 274ZM482.501 257.341H484.283V255.019H482.501V257.341ZM482.555 272.353C482.555 273.514 483.041 274 484.202 274H486.119V272.407H484.985C484.607 272.407 484.391 272.218 484.391 271.813V262.066C484.391 260.905 483.905 260.419 482.744 260.419H480.827V262.012H481.961C482.339 262.012 482.555 262.228 482.555 262.606V272.353ZM489.224 274H491.06V261.958H494.516V260.419H491.06V259.933C491.06 256.909 493.058 256.531 494.084 256.531C494.489 256.531 494.732 256.585 494.732 256.585V254.938C494.732 254.938 494.408 254.884 493.895 254.884C492.383 254.884 489.224 255.451 489.224 259.933V260.419H487.523V261.958H489.224V274ZM496.154 276.997L495.29 278.347C495.29 278.347 496.343 279.67 498.233 279.67C500.042 279.67 501.419 278.563 502.121 276.835L507.98 262.633C508.169 262.147 508.439 262.012 508.925 262.012H509.195V260.419H508.358C507.116 260.419 506.711 260.689 506.252 261.904L502.904 270.382C502.634 271.057 502.445 271.84 502.445 271.84H502.391C502.391 271.84 502.175 271.057 501.905 270.382L498.422 261.904C497.936 260.689 497.558 260.419 496.343 260.419H495.506V262.012H495.776C496.262 262.012 496.505 262.147 496.721 262.633L501.5 273.946L500.69 275.809C500.177 277.051 499.367 278.023 498.179 278.023C497.018 278.023 496.154 277.024 496.154 276.997ZM510.279 274H512.358V271.84H510.279V274ZM516.566 274H518.402V267.574C518.402 266.953 518.456 266.332 518.618 265.765C519.185 263.686 520.832 261.769 523.046 261.769C525.611 261.769 525.908 263.767 525.908 265.819V274H527.744V267.574C527.744 266.845 527.798 266.197 527.987 265.603C528.527 263.605 530.228 261.769 532.28 261.769C534.764 261.769 535.223 263.605 535.223 265.819V272.353C535.223 273.514 535.709 274 536.87 274H538.787V272.407H537.653C537.275 272.407 537.059 272.218 537.059 271.813V265.36C537.059 262.012 535.844 260.095 532.55 260.095C530.255 260.095 528.284 261.661 527.555 263.497H527.501C527.096 261.256 525.8 260.095 523.289 260.095C521.183 260.095 519.05 261.688 518.375 263.524H518.321C518.321 263.524 518.375 263.092 518.375 262.552V261.931C518.375 260.905 517.862 260.419 516.728 260.419H514.838V262.012H515.972C516.35 262.012 516.566 262.228 516.566 262.606V274ZM540.425 267.223C540.425 271.408 543.503 274.324 547.526 274.324C550.604 274.324 552.575 272.38 552.575 272.38L551.684 271.003C551.684 271.003 550.091 272.677 547.607 272.677C544.799 272.677 542.396 270.706 542.342 267.277H552.764C552.764 267.277 552.818 266.683 552.818 266.359C552.818 262.984 550.874 260.095 547.121 260.095C543.476 260.095 540.425 262.768 540.425 267.223ZM542.423 265.819C542.882 263.092 544.853 261.634 547.094 261.634C549.092 261.634 550.82 263.011 550.928 265.819H542.423Z" fill="black"/>
<path d="M25.1259 359.596C24.9152 358.964 24.5797 358.838 23.9489 358.838H23.3612V354.289H27.0172C28.7818 354.289 29.6222 354.836 30.0423 356.479L33.1941 368.399C33.4882 369.536 33.6142 370.673 33.6142 370.673H33.6983C33.6983 370.673 33.8663 369.535 34.2024 368.399L38.1525 354.373H42.8588L46.8503 368.399C47.187 369.536 47.3131 370.673 47.3131 370.673H47.3971C47.3971 370.673 47.5232 369.535 47.8173 368.399L50.927 356.479C51.3472 354.837 52.1875 354.289 53.9521 354.289H57.6081V358.838H57.0205C56.3896 358.838 56.0955 358.964 55.8434 359.596L50.7169 375.77H44.7069L41.051 363.513C40.7148 362.376 40.5468 361.196 40.5468 361.196H40.4628C40.4628 361.196 40.2521 362.376 39.9166 363.513L36.3026 375.77H30.2524L25.1259 359.596Z" fill="#553F2E"/>
<path d="M61.6794 359.765C61.6794 359.132 61.3427 358.838 60.755 358.838H59.0738V354.289H64.1583C66.1336 354.289 66.9733 355.174 66.9733 357.153V370.336C66.9733 370.925 67.3101 371.262 67.8983 371.262H69.5789V375.769H64.4944C62.5197 375.769 61.6794 374.927 61.6794 372.905V359.765Z" fill="#553F2E"/>
<path d="M74.0734 358.543H71.4264V354.289H74.0734V353.658C74.0734 346.624 79.8301 345.697 82.8138 345.697C83.9062 345.697 84.6211 345.824 84.6211 345.824V350.373C84.6211 350.373 84.1583 350.288 83.5287 350.288C82.0155 350.288 79.4105 350.667 79.4105 353.784V354.29H83.9908V358.544H79.4099V375.77H74.0734V358.543V358.543Z" fill="#553F2E"/>
<path d="M90.2494 380.108C91.7199 380.108 93.0224 379.223 93.7787 377.37L94.4929 375.728L87.3497 359.597C87.0976 358.965 86.8035 358.839 86.2153 358.839H85.5844V354.289H89.1143C90.6275 354.289 91.3832 354.837 91.9294 356.311L96.1315 367.052C96.5517 368.146 96.8878 369.915 96.8878 369.915H96.9724C96.9724 369.915 97.3086 368.147 97.6861 367.052L101.342 356.311C101.846 354.837 102.729 354.289 104.2 354.289H107.814V358.839H107.183C106.553 358.839 106.217 358.965 105.965 359.597L98.2749 379.013C96.7618 382.887 93.7366 384.615 90.5429 384.615C87.181 384.615 85.1229 382.425 85.1229 382.425L87.1816 378.634C87.1816 378.633 88.4847 380.108 90.2494 380.108Z" fill="#553F2E"/>
<path d="M58.2948 345.724L63.5143 350.956L68.7344 345.724C67.3989 344.383 65.5539 343.555 63.5143 343.555C61.4759 343.555 59.6309 344.383 58.2948 345.724Z" fill="#553F2E"/>
<path d="M47.8611 335.265L53.0758 340.49C55.7468 337.813 59.4394 336.156 63.5149 336.156C67.5916 336.156 71.2829 337.813 73.9551 340.49L79.1699 335.265C75.1592 331.244 69.6233 328.756 63.5155 328.756C57.4082 328.756 51.8712 331.245 47.8611 335.265Z" fill="#553F2E"/>
<path d="M37.4244 324.805L42.635 330.025C47.9787 324.669 55.3615 321.358 63.5149 321.358C71.6695 321.358 79.0522 324.669 84.3948 330.025L89.6053 324.805C82.9206 318.105 73.6922 313.956 63.5143 313.956C53.3381 313.956 44.1091 318.105 37.4244 324.805Z" fill="#553F2E"/>
<path d="M63.5143 306.713C74.9269 306.713 85.3312 311.039 93.1869 318.144C93.532 316.833 93.7259 315.462 93.7259 314.044C93.7259 305.183 86.5604 298 77.7203 298C71.5399 298 66.1823 301.513 63.5143 306.653C60.8475 301.513 55.4899 298 49.3094 298C40.4688 298 33.3039 305.183 33.3039 314.044C33.3039 315.462 33.4978 316.834 33.8429 318.144C41.6998 311.039 52.1035 306.713 63.5143 306.713Z" fill="#B3CC1F"/>
<path d="M112.644 359.765C112.644 359.132 112.308 358.838 111.719 358.838H110.038V354.289H114.955C116.845 354.289 117.77 355.174 117.77 356.69V357.321C117.77 357.785 117.728 358.248 117.728 358.248H117.812C118.821 356.142 121.383 353.783 124.745 353.783C127.981 353.783 130.082 355.3 131.007 358.206H131.091C132.225 355.89 134.999 353.783 138.402 353.783C142.856 353.783 145.419 356.31 145.419 361.954V370.336C145.419 370.925 145.756 371.262 146.344 371.262H147.982V375.769H142.94C140.924 375.769 140.083 374.927 140.083 372.905V362.965C140.083 360.522 139.62 358.669 137.142 358.669C134.495 358.669 132.603 360.901 132.015 363.596C131.763 364.439 131.678 365.324 131.678 366.334V375.769H126.342V362.965C126.342 360.648 126.006 358.669 123.443 358.669C120.754 358.669 118.947 360.901 118.274 363.639C118.064 364.481 117.938 365.366 117.938 366.334V375.769H112.644V359.765V359.765Z" fill="#B3CC1F"/>
<path d="M160.165 353.784C166.3 353.784 169.661 358.291 169.661 363.977C169.661 364.608 169.535 365.956 169.535 365.956H154.744C155.164 369.747 157.938 371.726 161.173 371.726C164.619 371.726 167.182 369.326 167.182 369.326L169.409 373.032C169.409 373.032 166.132 376.275 160.795 376.275C153.693 376.275 149.281 371.137 149.281 365.03C149.282 358.417 153.736 353.784 160.165 353.784ZM164.199 362.249C164.115 359.68 162.35 357.911 160.165 357.911C157.433 357.911 155.501 359.553 154.912 362.249H164.199Z" fill="#B3CC1F"/>
<path d="M539.929 343.936C539.929 343.936 541.993 346.288 545.329 346.288C548.521 346.288 550.897 343.888 550.897 341.032C550.897 337.408 547.801 336.184 545.689 336.064L550.657 330.232V329.128H542.089C541.057 329.128 540.673 329.56 540.673 330.592V332.272H542.233V331.144C542.233 330.784 542.425 330.616 542.761 330.616H547.153C548.041 330.616 548.521 330.544 548.521 330.544V330.592C548.521 330.592 548.065 330.976 547.657 331.528L543.505 336.52L543.889 337.504H545.065C547.201 337.504 549.169 338.776 549.169 341.056C549.169 343.216 547.345 344.704 545.353 344.704C542.665 344.704 540.937 342.688 540.937 342.688L539.929 343.936ZM552.992 344.344C552.992 345.52 553.352 346 554.504 346H562.952C563.984 346 564.416 345.568 564.416 344.536V342.856H562.856V343.984C562.856 344.344 562.664 344.512 562.328 344.512H555.272C554.912 344.512 554.72 344.368 554.72 344.032C554.72 339.352 563.648 339.496 563.648 333.568C563.648 330.952 561.728 328.84 558.512 328.84C556.784 328.84 553.88 329.656 553.88 331.792V333.04H555.464V332.248C555.464 331.288 556.784 330.424 558.464 330.424C560.6 330.424 561.92 331.792 561.92 333.592C561.92 338.584 552.992 338.08 552.992 344.344ZM578.444 346H580.244L585.788 331.144C585.956 330.688 586.196 330.616 586.652 330.616H586.868V329.128H586.148C584.948 329.128 584.588 329.344 584.156 330.52L580.004 341.872C579.692 342.736 579.356 344.056 579.356 344.056H579.308C579.308 344.056 578.972 342.736 578.66 341.872L574.508 330.52C574.1 329.368 573.74 329.128 572.54 329.128H571.796V330.616H572.036C572.492 330.616 572.732 330.688 572.9 331.144L578.444 346ZM587.023 342.712C587.023 345.112 589.111 346.288 591.127 346.288C594.151 346.288 595.159 343.672 595.135 343.672H595.183C595.183 343.672 595.159 344.032 595.159 344.56C595.159 345.544 595.567 346 596.599 346H598.255V344.584H597.247C596.911 344.584 596.719 344.416 596.719 344.056V338.272C596.719 335.68 595.807 333.64 591.991 333.64C590.935 333.64 588.055 334 588.055 335.68V336.832H589.615V336.064C589.615 335.176 591.367 335.008 591.967 335.008C594.175 335.008 595.087 335.896 595.087 338.416V338.56H594.415C592.327 338.56 587.023 338.704 587.023 342.712ZM588.703 342.616C588.703 339.904 592.495 339.856 594.391 339.856H595.087V340.408C595.087 342.496 593.695 344.896 591.391 344.896C589.59 344.896 588.703 343.744 588.703 342.616ZM599.462 344.176C599.462 344.176 600.95 346.288 604.094 346.288C606.494 346.288 608.318 344.92 608.318 342.904C608.318 338.896 601.55 339.52 601.55 336.808C601.55 335.632 602.558 335.056 604.238 335.056C605.03 335.056 606.326 335.392 606.326 336.28V336.856H607.862V335.824C607.862 334.12 605.414 333.64 604.19 333.64C601.766 333.64 599.894 334.72 599.894 336.904C599.894 340.792 606.662 340.312 606.662 342.952C606.662 344.224 605.462 344.872 604.118 344.872C601.742 344.872 600.398 343.048 600.398 343.048L599.462 344.176ZM610.032 344.176C610.032 344.176 611.52 346.288 614.664 346.288C617.064 346.288 618.888 344.92 618.888 342.904C618.888 338.896 612.12 339.52 612.12 336.808C612.12 335.632 613.128 335.056 614.808 335.056C615.6 335.056 616.896 335.392 616.896 336.28V336.856H618.432V335.824C618.432 334.12 615.984 333.64 614.76 333.64C612.336 333.64 610.464 334.72 610.464 336.904C610.464 340.792 617.232 340.312 617.232 342.952C617.232 344.224 616.032 344.872 614.688 344.872C612.312 344.872 610.968 343.048 610.968 343.048L610.032 344.176ZM620.866 342.712C620.866 345.112 622.954 346.288 624.97 346.288C627.994 346.288 629.002 343.672 628.978 343.672H629.026C629.026 343.672 629.002 344.032 629.002 344.56C629.002 345.544 629.41 346 630.442 346H632.098V344.584H631.09C630.754 344.584 630.562 344.416 630.562 344.056V338.272C630.562 335.68 629.65 333.64 625.834 333.64C624.778 333.64 621.898 334 621.898 335.68V336.832H623.458V336.064C623.458 335.176 625.21 335.008 625.81 335.008C628.018 335.008 628.93 335.896 628.93 338.416V338.56H628.258C626.17 338.56 620.866 338.704 620.866 342.712ZM622.546 342.616C622.546 339.904 626.338 339.856 628.234 339.856H628.93V340.408C628.93 342.496 627.538 344.896 625.234 344.896C623.434 344.896 622.546 343.744 622.546 342.616ZM634.697 346H636.329V340.912C636.329 340.144 636.425 339.328 636.665 338.56C637.193 336.784 638.465 335.44 640.169 335.44C640.481 335.44 640.769 335.488 640.769 335.488V333.88C640.769 333.88 640.457 333.808 640.121 333.808C638.225 333.808 636.881 335.2 636.305 337.024H636.257C636.257 337.024 636.305 336.616 636.305 336.112V335.296C636.305 334.336 635.849 333.928 634.841 333.928H633.161V335.344H634.169C634.505 335.344 634.697 335.536 634.697 335.872V346ZM648.732 343.888C648.732 343.888 650.628 346.288 654.084 346.288C657.252 346.288 659.196 344.152 659.196 341.632C659.196 336.064 650.868 337.024 650.868 333.112C650.868 331.672 652.14 330.4 654.324 330.4C655.884 330.4 657.276 331.144 657.276 332.152V332.944H658.86V331.744C658.86 329.536 655.932 328.84 654.3 328.84C651.18 328.84 649.14 330.808 649.14 333.16C649.14 338.392 657.468 337.552 657.468 341.728C657.468 343.528 655.98 344.728 654.132 344.728C651.468 344.728 649.764 342.664 649.764 342.664L648.732 343.888ZM662.498 341.608C662.498 345.64 665.306 346.096 666.698 346.096C667.106 346.096 667.394 346.048 667.394 346.048V344.584C667.394 344.584 667.178 344.632 666.842 344.632C665.93 344.632 664.13 344.272 664.13 341.44V335.296H667.154V333.928H664.13V330.592H662.522V333.928H660.914V335.296H662.498V341.608ZM670.225 344.032L668.857 348.328H670.225L671.977 344.032H670.225ZM444.451 366.432C444.451 371.352 447.931 375.288 452.875 375.288C457.051 375.288 459.379 372.552 459.379 372.552L458.419 371.328C458.419 371.328 456.379 373.704 452.899 373.704C449.059 373.704 446.203 370.464 446.203 366.432C446.203 362.352 449.083 359.424 452.827 359.424C454.771 359.424 457.507 360.288 457.507 361.872V362.808H459.091V361.416C459.091 358.872 455.179 357.84 452.779 357.84C448.027 357.84 444.451 361.56 444.451 366.432ZM461.163 371.712C461.163 374.112 463.251 375.288 465.267 375.288C468.291 375.288 469.299 372.672 469.275 372.672H469.323C469.323 372.672 469.299 373.032 469.299 373.56C469.299 374.544 469.707 375 470.739 375H472.395V373.584H471.387C471.051 373.584 470.859 373.416 470.859 373.056V367.272C470.859 364.68 469.947 362.64 466.131 362.64C465.075 362.64 462.195 363 462.195 364.68V365.832H463.755V365.064C463.755 364.176 465.507 364.008 466.107 364.008C468.315 364.008 469.227 364.896 469.227 367.416V367.56H468.555C466.467 367.56 461.163 367.704 461.163 371.712ZM462.843 371.616C462.843 368.904 466.635 368.856 468.531 368.856H469.227V369.408C469.227 371.496 467.835 373.896 465.531 373.896C463.731 373.896 462.843 372.744 462.843 371.616ZM474.994 375H476.626V369.288C476.626 368.736 476.674 368.184 476.818 367.68C477.322 365.832 478.786 364.128 480.754 364.128C483.034 364.128 483.298 365.904 483.298 367.728V375H484.93V369.288C484.93 368.64 484.978 368.064 485.146 367.536C485.626 365.76 487.138 364.128 488.962 364.128C491.17 364.128 491.578 365.76 491.578 367.728V373.536C491.578 374.568 492.01 375 493.042 375H494.746V373.584H493.738C493.402 373.584 493.21 373.416 493.21 373.056V367.32C493.21 364.344 492.13 362.64 489.202 362.64C487.162 362.64 485.41 364.032 484.762 365.664H484.714C484.354 363.672 483.202 362.64 480.97 362.64C479.098 362.64 477.202 364.056 476.602 365.688H476.554C476.554 365.688 476.602 365.304 476.602 364.824V364.272C476.602 363.36 476.146 362.928 475.138 362.928H473.458V364.344H474.466C474.802 364.344 474.994 364.536 474.994 364.872V375ZM497.258 375H498.842V373.944C498.842 373.368 498.794 372.96 498.794 372.96H498.842C498.842 372.96 499.922 375.288 502.802 375.288C505.97 375.288 508.25 372.792 508.25 368.976C508.25 365.232 506.234 362.64 502.994 362.64C499.898 362.64 498.89 364.944 498.89 364.944H498.842C498.842 364.944 498.89 364.512 498.89 363.96V359.592C498.89 358.56 498.458 358.128 497.426 358.128H495.722V359.544H496.73C497.066 359.544 497.258 359.736 497.258 360.072V375ZM498.842 369C498.842 365.568 500.738 364.128 502.754 364.128C504.986 364.128 506.57 366.024 506.57 368.976C506.57 372.048 504.818 373.848 502.682 373.848C500.09 373.848 498.842 371.424 498.842 369ZM511.346 375H512.978V369.912C512.978 369.144 513.074 368.328 513.314 367.56C513.842 365.784 515.114 364.44 516.818 364.44C517.13 364.44 517.418 364.488 517.418 364.488V362.88C517.418 362.88 517.106 362.808 516.77 362.808C514.874 362.808 513.53 364.2 512.954 366.024H512.906C512.906 366.024 512.954 365.616 512.954 365.112V364.296C512.954 363.336 512.498 362.928 511.49 362.928H509.81V364.344H510.818C511.154 364.344 511.346 364.536 511.346 364.872V375ZM520.113 360.192H521.697V358.128H520.113V360.192ZM520.161 373.536C520.161 374.568 520.593 375 521.625 375H523.329V373.584H522.321C521.985 373.584 521.793 373.416 521.793 373.056V364.392C521.793 363.36 521.361 362.928 520.329 362.928H518.625V364.344H519.633C519.969 364.344 520.161 364.536 520.161 364.872V373.536ZM524.985 368.952C524.985 372.696 527.001 375.288 530.241 375.288C533.409 375.288 534.393 372.888 534.393 372.888H534.441C534.441 372.888 534.393 373.2 534.393 373.656C534.393 374.544 534.825 375 535.833 375H537.513V373.584H536.505C536.169 373.584 535.977 373.416 535.977 373.056V359.592C535.977 358.56 535.545 358.128 534.513 358.128H532.809V359.544H533.817C534.153 359.544 534.345 359.736 534.345 360.072V363.984C534.345 364.488 534.393 364.896 534.393 364.896H534.345C534.345 364.896 533.337 362.64 530.409 362.64C527.241 362.64 524.985 365.136 524.985 368.952ZM530.481 373.824C528.225 373.824 526.665 371.928 526.665 368.952C526.665 365.904 528.417 364.104 530.553 364.104C533.145 364.104 534.393 366.504 534.393 368.952C534.393 372.384 532.497 373.824 530.481 373.824ZM539.094 368.736C539.094 372.36 541.23 374.928 544.47 374.928C546.342 374.928 547.542 374.16 548.262 372.84H548.31C548.31 372.84 548.286 373.248 548.286 373.704V374.76C548.286 377.448 546.414 378.552 544.062 378.552C542.286 378.552 540.798 377.712 540.798 377.712L540.174 379.08C541.35 379.68 542.742 380.04 544.11 380.04C547.086 380.04 549.918 378.552 549.918 374.712V364.872C549.918 364.512 550.11 364.344 550.446 364.344H551.43V362.928H549.75C548.766 362.928 548.382 363.384 548.382 364.248C548.382 364.488 548.382 364.704 548.382 364.704H548.334C548.334 364.704 547.566 362.64 544.326 362.64C541.086 362.64 539.094 365.112 539.094 368.736ZM544.71 373.464C542.334 373.464 540.774 371.592 540.774 368.712C540.774 365.832 542.142 364.128 544.494 364.128C546.63 364.128 548.31 365.208 548.31 368.736C548.31 372.288 546.63 373.464 544.71 373.464ZM552.944 368.976C552.944 372.696 555.68 375.288 559.256 375.288C561.992 375.288 563.744 373.56 563.744 373.56L562.952 372.336C562.952 372.336 561.536 373.824 559.328 373.824C556.832 373.824 554.696 372.072 554.648 369.024H563.912C563.912 369.024 563.96 368.496 563.96 368.208C563.96 365.208 562.232 362.64 558.896 362.64C555.656 362.64 552.944 365.016 552.944 368.976ZM554.72 367.728C555.128 365.304 556.88 364.008 558.872 364.008C560.648 364.008 562.184 365.232 562.28 367.728H554.72ZM572.2 375H573.808C574.84 375 575.2 374.568 575.272 373.536L576.064 363.288C576.136 362.376 576.136 360.888 576.136 360.888H576.184C576.184 360.888 576.688 362.448 577.072 363.288L581.056 371.856H582.568L586.576 363.288C586.984 362.424 587.44 360.936 587.44 360.936H587.488C587.488 360.936 587.488 362.376 587.56 363.288L588.352 373.536C588.424 374.568 588.784 375 589.816 375H591.448V373.512H590.536C590.2 373.512 590.032 373.344 590.008 372.984L588.832 358.128H587.128L582.664 367.944C582.28 368.808 581.848 369.936 581.848 369.936H581.8C581.8 369.936 581.368 368.808 580.96 367.944L576.496 358.128H574.792L573.616 372.984C573.592 373.344 573.424 373.512 573.088 373.512H572.2V375ZM592.233 375H593.025C594.225 375 594.561 374.76 594.993 373.608L596.481 369.624H603.177L604.641 373.608C605.073 374.76 605.433 375 606.633 375H607.401V373.512H607.113C606.657 373.512 606.417 373.44 606.249 372.984L600.729 358.128H598.929L593.409 372.984C593.241 373.44 592.977 373.512 592.545 373.512H592.233V375ZM596.937 368.16L599.145 362.136C599.433 361.344 599.793 359.952 599.793 359.952H599.841C599.841 359.952 600.201 361.344 600.489 362.136L602.721 368.16H596.937ZM621.482 375.288C625.874 375.288 627.314 371.448 627.314 366.552C627.314 361.704 625.874 357.84 621.482 357.84C617.09 357.84 615.674 361.704 615.674 366.552C615.674 371.448 617.09 375.288 621.482 375.288ZM621.482 373.728C618.29 373.728 617.378 370.584 617.378 366.552C617.378 362.544 618.29 359.4 621.482 359.4C624.674 359.4 625.586 362.544 625.586 366.552C625.586 370.584 624.674 373.728 621.482 373.728ZM629.446 373.344C629.446 374.52 629.806 375 630.958 375H639.406C640.438 375 640.87 374.568 640.87 373.536V371.856H639.31V372.984C639.31 373.344 639.118 373.512 638.782 373.512H631.726C631.366 373.512 631.174 373.368 631.174 373.032C631.174 368.352 640.102 368.496 640.102 362.568C640.102 359.952 638.182 357.84 634.966 357.84C633.238 357.84 630.334 358.656 630.334 360.792V362.04H631.918V361.248C631.918 360.288 633.238 359.424 634.918 359.424C637.054 359.424 638.374 360.792 638.374 362.592C638.374 367.584 629.446 367.08 629.446 373.344ZM642.992 373.344C642.992 374.52 643.352 375 644.504 375H652.952C653.984 375 654.416 374.568 654.416 373.536V371.856H652.856V372.984C652.856 373.344 652.664 373.512 652.328 373.512H645.272C644.912 373.512 644.72 373.368 644.72 373.032C644.72 368.352 653.648 368.496 653.648 362.568C653.648 359.952 651.728 357.84 648.512 357.84C646.784 357.84 643.88 358.656 643.88 360.792V362.04H645.464V361.248C645.464 360.288 646.784 359.424 648.464 359.424C650.6 359.424 651.92 360.792 651.92 362.592C651.92 367.584 642.992 367.08 642.992 373.344ZM657.067 375H666.211V373.512H662.515V358.128H660.931L657.115 361.92L658.171 363L659.971 361.2C660.643 360.552 660.811 360.192 660.811 360.192H660.859C660.859 360.192 660.835 360.648 660.835 361.128V373.512H657.067V375ZM666.883 370.344H675.211V375H676.891V370.344H679.579V368.856H676.891V358.128H675.091L666.883 369.24V370.344ZM675.235 368.856H670.219C669.499 368.856 668.827 368.928 668.827 368.928V368.88C668.827 368.88 669.259 368.424 669.715 367.824L674.395 361.632C674.851 361.032 675.259 360.336 675.259 360.336H675.307C675.307 360.336 675.235 361.248 675.235 361.968V368.856Z" fill="black"/>
</svg>
